<svg xmlns="http://www.w3.org/2000/svg" width="96" height="96" viewBox="0 0 96 96">
  <g id="cancelled" opacity="0.3">
    <path id="Path_120" data-name="Path 120" d="M0,0H96V96H0Z" fill="none"/>
    <path id="Path_121" data-name="Path 121" d="M87.385,3h-60a7.529,7.529,0,0,0-6.36,3.52L.865,36.8a4.064,4.064,0,0,0,0,4.44l20.16,30.24A7.622,7.622,0,0,0,27.385,75h60a8.024,8.024,0,0,0,8-8V11A8.024,8.024,0,0,0,87.385,3Zm-14.8,53.2a3.983,3.983,0,0,1-5.64,0L55.385,44.64,43.825,56.2a3.988,3.988,0,1,1-5.64-5.64L49.745,39,38.185,27.44a3.988,3.988,0,1,1,5.64-5.64l11.56,11.56L66.945,21.8a3.988,3.988,0,1,1,5.64,5.64L61.025,39l11.56,11.56a4.058,4.058,0,0,1,0,5.64Z" transform="translate(0.615 9)" fill="#fff"/>
  </g>
</svg>
