<svg xmlns="http://www.w3.org/2000/svg" xmlns:xlink="http://www.w3.org/1999/xlink" width="589.669" height="668.515" viewBox="0 0 589.669 668.515">
  <defs>
    <linearGradient id="linear-gradient" x1="1" y1="0.5" x2="0" y2="0.5" gradientUnits="objectBoundingBox">
      <stop offset="0" stop-color="#5761d7"/>
      <stop offset="0.073" stop-color="#5471d8"/>
      <stop offset="0.279" stop-color="#4d9bda"/>
      <stop offset="0.48" stop-color="#48bddd"/>
      <stop offset="0.672" stop-color="#44d4de"/>
      <stop offset="0.849" stop-color="#42e3df"/>
      <stop offset="1" stop-color="#42e8e0"/>
    </linearGradient>
    <linearGradient id="linear-gradient-18" x1="1" y1="0.5" x2="0" y2="0.5" xlink:href="#linear-gradient"/>
    <linearGradient id="linear-gradient-21" x1="2.328" y1="1.872" x2="1.063" y2="1.872" xlink:href="#linear-gradient"/>
    <linearGradient id="linear-gradient-22" x1="2.174" y1="38.609" x2="1.216" y2="38.609" xlink:href="#linear-gradient"/>
    <linearGradient id="linear-gradient-23" x1="1.233" y1="4.361" x2="0.242" y2="4.361" xlink:href="#linear-gradient"/>
    <linearGradient id="linear-gradient-24" x1="2.074" y1="3.392" x2="0.702" y2="3.392" xlink:href="#linear-gradient"/>
    <linearGradient id="linear-gradient-25" x1="1.421" y1="2.219" x2="0.418" y2="2.219" xlink:href="#linear-gradient"/>
    <linearGradient id="linear-gradient-26" x1="4.246" y1="37.83" x2="3.199" y2="37.83" xlink:href="#linear-gradient"/>
    <linearGradient id="linear-gradient-27" x1="4.085" y1="38.067" x2="3.038" y2="38.067" xlink:href="#linear-gradient"/>
    <linearGradient id="linear-gradient-28" x1="1.448" y1="2.025" x2="0.26" y2="2.025" xlink:href="#linear-gradient"/>
    <linearGradient id="linear-gradient-29" x1="1.247" y1="0.5" x2="-0.034" y2="0.5" gradientUnits="objectBoundingBox">
      <stop offset="0" stop-color="#5761d7"/>
      <stop offset="0.164" stop-color="#5e67d9"/>
      <stop offset="0.405" stop-color="#7179e1"/>
      <stop offset="0.692" stop-color="#9197ee"/>
      <stop offset="1" stop-color="#bcbeff"/>
    </linearGradient>
    <linearGradient id="linear-gradient-30" x1="1" y1="0.5" x2="0" y2="0.5" gradientUnits="objectBoundingBox">
      <stop offset="0" stop-color="#42e8e0"/>
      <stop offset="0.151" stop-color="#42e3df"/>
      <stop offset="0.328" stop-color="#44d4de"/>
      <stop offset="0.52" stop-color="#48bddd"/>
      <stop offset="0.721" stop-color="#4d9bda"/>
      <stop offset="0.927" stop-color="#5471d8"/>
      <stop offset="1" stop-color="#5761d7"/>
    </linearGradient>
  </defs>
  <g id="spalsh_art" transform="translate(0 0)">
    <g id="Group_280" data-name="Group 280" transform="translate(2.569 0)">
      <path id="Path_143" data-name="Path 143" d="M543.749,168.349q-8.854,2.288-17.409,4.785v42.086q8.548-2.5,17.409-4.787V168.349Z" transform="translate(-526.34 -34.172)" fill="#42e8e0"/>
      <path id="Path_144" data-name="Path 144" d="M527.2,169.127q-9.475,1.816-18.679,3.852v31.283q9.2-2.037,18.679-3.852V169.127Z" transform="translate(-469.448 -33.19)" fill="#42e8e0" opacity="0.5"/>
      <path id="Path_145" data-name="Path 145" d="M509.363,153.986q-10.015,1.3-19.792,2.843v58.687q9.777-1.541,19.792-2.843V153.986Z" transform="translate(-408.736 -52.317)" fill="#42e8e0"/>
      <path id="Path_146" data-name="Path 146" d="M490.4,137.645q-10.477.75-20.754,1.761v91.138q10.273-1,20.754-1.761V137.645Z" transform="translate(-344.686 -72.96)" fill="#42e8e0" opacity="0.5"/>
      <path id="Path_147" data-name="Path 147" d="M470.493,146.289q-10.888.166-21.612.611v69.53q10.721-.441,21.612-.609V146.289Z" transform="translate(-277.772 -62.041)" fill="#42e8e0" opacity="0.5"/>
      <path id="Path_148" data-name="Path 148" d="M449.329,114.461q-10.63-.431-21.415-.593v142.9q10.786.16,21.415.593v-142.9Z" transform="translate(-209.154 -102.997)" fill="#42e8e0"/>
      <path id="Path_149" data-name="Path 149" d="M428.286,128.1q-10.226-.995-20.65-1.738V242.986q10.419.743,20.65,1.738V128.1Z" transform="translate(-142.216 -87.211)" fill="#42e8e0"/>
      <path id="Path_150" data-name="Path 150" d="M407.943,111.881q-9.75-1.524-19.734-2.816V269.319q9.981,1.29,19.734,2.816V111.881Z" transform="translate(-77.904 -109.065)" fill="#42e8e0"/>
    </g>
    <g id="Group_341" data-name="Group 341" transform="translate(0 82.819)">
      <g id="Group_300" data-name="Group 300" transform="translate(94.859 168.541)">
        <g id="Group_297" data-name="Group 297">
          <g id="Group_285" data-name="Group 285" transform="translate(0 185.138)" opacity="0.5">
            <g id="Group_281" data-name="Group 281" transform="translate(0 67.13)" opacity="0.11">
              <path id="Path_151" data-name="Path 151" d="M498.93,334.574a22.313,22.313,0,0,1,22.289-.011l132.83,76.515a3.136,3.136,0,0,1,0,5.432L520.11,493.837a19.66,19.66,0,0,1-19.668,0L366.3,416.584a3.138,3.138,0,0,1,0-5.434Z" transform="translate(-364.731 -331.586)" fill="url(#linear-gradient)"/>
            </g>
            <g id="Group_282" data-name="Group 282" transform="translate(0 44.754)" opacity="0.11">
              <path id="Path_152" data-name="Path 152" d="M498.93,324.688a22.307,22.307,0,0,1,22.289-.011l132.83,76.513a3.138,3.138,0,0,1,0,5.434L520.11,483.951a19.671,19.671,0,0,1-19.668,0L366.3,406.694a3.136,3.136,0,0,1,0-5.432Z" transform="translate(-364.731 -321.699)" fill="url(#linear-gradient)"/>
            </g>
            <g id="Group_283" data-name="Group 283" transform="translate(0 22.377)" opacity="0.11">
              <path id="Path_153" data-name="Path 153" d="M498.93,314.8a22.307,22.307,0,0,1,22.289-.011L654.049,391.3a3.136,3.136,0,0,1,0,5.432L520.11,474.064a19.661,19.661,0,0,1-19.668,0L366.3,396.807a3.136,3.136,0,0,1,0-5.432Z" transform="translate(-364.731 -311.812)" fill="url(#linear-gradient)"/>
            </g>
            <g id="Group_284" data-name="Group 284" transform="translate(0)" opacity="0.11">
              <path id="Path_154" data-name="Path 154" d="M498.93,304.914a22.307,22.307,0,0,1,22.289-.011l132.83,76.513a3.136,3.136,0,0,1,0,5.432L520.11,464.177a19.672,19.672,0,0,1-19.668,0L366.3,386.92a3.136,3.136,0,0,1,0-5.432Z" transform="translate(-364.731 -301.925)" fill="url(#linear-gradient)"/>
            </g>
            <path id="Path_155" data-name="Path 155" d="M366.3,381.488,498.93,304.914a22.307,22.307,0,0,1,22.289-.011l132.83,76.513a3.107,3.107,0,0,1,1.569,2.716v67.131a3.1,3.1,0,0,1-1.569,2.716L520.11,531.306a19.66,19.66,0,0,1-19.668,0L366.3,454.053a3.115,3.115,0,0,1-1.568-2.718V384.2h0A3.114,3.114,0,0,1,366.3,381.488Z" transform="translate(-364.731 -301.925)" opacity="0.11" fill="url(#linear-gradient)"/>
          </g>
          <g id="Group_290" data-name="Group 290" transform="translate(0 92.57)">
            <g id="Group_286" data-name="Group 286" transform="translate(0 67.129)" opacity="0.11">
              <path id="Path_156" data-name="Path 156" d="M498.93,293.674a22.307,22.307,0,0,1,22.289-.011l132.83,76.515a3.136,3.136,0,0,1,0,5.432L520.11,452.937a19.66,19.66,0,0,1-19.668,0L366.3,375.682a3.136,3.136,0,0,1,0-5.432Z" transform="translate(-364.731 -290.685)" fill="url(#linear-gradient)"/>
            </g>
            <g id="Group_287" data-name="Group 287" transform="translate(0 44.752)" opacity="0.11">
              <path id="Path_157" data-name="Path 157" d="M498.93,283.787a22.307,22.307,0,0,1,22.289-.011l132.83,76.513a3.136,3.136,0,0,1,0,5.432L520.11,443.05a19.66,19.66,0,0,1-19.668,0L366.3,365.8a3.138,3.138,0,0,1,0-5.434Z" transform="translate(-364.731 -280.798)" fill="url(#linear-gradient)"/>
            </g>
            <g id="Group_288" data-name="Group 288" transform="translate(0 22.377)" opacity="0.11">
              <path id="Path_158" data-name="Path 158" d="M498.93,273.9a22.313,22.313,0,0,1,22.289-.009l132.83,76.51a3.138,3.138,0,0,1,0,5.434L520.11,433.164a19.671,19.671,0,0,1-19.668,0L366.3,355.907a3.138,3.138,0,0,1,0-5.434Z" transform="translate(-364.731 -270.912)" fill="url(#linear-gradient)"/>
            </g>
            <g id="Group_289" data-name="Group 289" transform="translate(0)" opacity="0.11">
              <path id="Path_159" data-name="Path 159" d="M498.93,264.014A22.307,22.307,0,0,1,521.219,264l132.83,76.513a3.136,3.136,0,0,1,0,5.432L520.11,423.277a19.672,19.672,0,0,1-19.668,0L366.3,346.02a3.136,3.136,0,0,1,0-5.432Z" transform="translate(-364.731 -261.025)" fill="url(#linear-gradient)"/>
            </g>
            <path id="Path_160" data-name="Path 160" d="M366.3,340.588,498.93,264.014A22.307,22.307,0,0,1,521.219,264l132.83,76.513a3.1,3.1,0,0,1,1.569,2.716v67.131a3.107,3.107,0,0,1-1.569,2.716L520.11,490.406a19.66,19.66,0,0,1-19.668,0L366.3,413.151a3.111,3.111,0,0,1-1.568-2.716V343.3h0A3.109,3.109,0,0,1,366.3,340.588Z" transform="translate(-364.731 -261.025)" opacity="0.11" fill="url(#linear-gradient)"/>
          </g>
          <g id="Group_296" data-name="Group 296">
            <g id="Group_291" data-name="Group 291" transform="translate(0 67.13)" opacity="0.11">
              <path id="Path_161" data-name="Path 161" d="M498.93,252.772a22.313,22.313,0,0,1,22.289-.009l132.83,76.513a3.138,3.138,0,0,1,0,5.434L520.11,412.037a19.671,19.671,0,0,1-19.668,0L366.3,334.782a3.136,3.136,0,0,1,0-5.432Z" transform="translate(-364.731 -249.785)" fill="url(#linear-gradient)"/>
            </g>
            <g id="Group_292" data-name="Group 292" transform="translate(0 44.753)" opacity="0.11">
              <path id="Path_162" data-name="Path 162" d="M498.93,242.887a22.307,22.307,0,0,1,22.289-.011l132.83,76.513a3.136,3.136,0,0,1,0,5.432L520.11,402.15a19.66,19.66,0,0,1-19.668,0L366.3,324.893a3.136,3.136,0,0,1,0-5.432Z" transform="translate(-364.731 -239.898)" fill="url(#linear-gradient)"/>
            </g>
            <g id="Group_293" data-name="Group 293" transform="translate(0 22.376)" opacity="0.11">
              <path id="Path_163" data-name="Path 163" d="M498.93,233a22.307,22.307,0,0,1,22.289-.011L654.049,309.5a3.136,3.136,0,0,1,0,5.432L520.11,392.263a19.661,19.661,0,0,1-19.668,0L366.3,315.006a3.136,3.136,0,0,1,0-5.432Z" transform="translate(-364.731 -230.011)" fill="url(#linear-gradient)"/>
            </g>
            <g id="Group_294" data-name="Group 294" transform="translate(0)" opacity="0.11">
              <path id="Path_164" data-name="Path 164" d="M498.93,223.113a22.313,22.313,0,0,1,22.289-.011l132.83,76.513a3.138,3.138,0,0,1,0,5.434L520.11,382.378a19.683,19.683,0,0,1-19.668,0L366.3,305.121a3.138,3.138,0,0,1,0-5.434Z" transform="translate(-364.731 -220.125)" fill="url(#linear-gradient)"/>
            </g>
            <path id="Path_165" data-name="Path 165" d="M366.3,299.687,498.93,223.113a22.313,22.313,0,0,1,22.289-.011l132.83,76.513a3.107,3.107,0,0,1,1.569,2.716v67.131a3.113,3.113,0,0,1-1.569,2.718L520.11,449.507a19.671,19.671,0,0,1-19.668,0L366.3,372.252a3.116,3.116,0,0,1-1.568-2.716V302.4h0A3.114,3.114,0,0,1,366.3,299.687Z" transform="translate(-364.731 -220.125)" opacity="0.5" fill="url(#linear-gradient)"/>
            <g id="Group_295" data-name="Group 295" transform="translate(0)" opacity="0.11">
              <path id="Path_166" data-name="Path 166" d="M498.93,223.113a22.313,22.313,0,0,1,22.289-.011l132.83,76.513a3.138,3.138,0,0,1,0,5.434L520.11,382.378a19.683,19.683,0,0,1-19.668,0L366.3,305.121a3.138,3.138,0,0,1,0-5.434Z" transform="translate(-364.731 -220.125)" fill="url(#linear-gradient)"/>
            </g>
            <path id="Path_167" data-name="Path 167" d="M366.3,257.009l134.143,77.253a19.66,19.66,0,0,0,19.668,0l133.939-77.327a3.1,3.1,0,0,0,1.163-1.17,3.141,3.141,0,0,1-1.163,4.262L520.11,337.355a19.683,19.683,0,0,1-19.668,0L366.3,260.1a3.137,3.137,0,0,1-1.163-4.262A3.1,3.1,0,0,0,366.3,257.009Z" transform="translate(-364.731 -175.102)" fill="url(#linear-gradient)"/>
          </g>
        </g>
        <g id="Group_299" data-name="Group 299" transform="translate(271.968 100.496)">
          <g id="Group_298" data-name="Group 298" transform="translate(0)">
            <path id="Path_168" data-name="Path 168" d="M374.932,267.994l-3.3,1.907v-2.212l3.3-1.905Z" transform="translate(-371.632 -262.941)" fill="#42e8e0"/>
            <path id="Path_169" data-name="Path 169" d="M374.932,280.594l-3.3,1.907V269.557l3.3-1.905Z" transform="translate(-371.632 -260.581)" fill="#42e8e0"/>
            <path id="Path_170" data-name="Path 170" d="M374.932,279.4l-3.3,1.905v-5.139l3.3-1.905Z" transform="translate(-371.632 -252.23)" fill="#42e8e0"/>
            <path id="Path_171" data-name="Path 171" d="M374.932,282.677l-3.3,1.905v-5.139l3.3-1.905Z" transform="translate(-371.632 -248.091)" fill="#42e8e0"/>
            <path id="Path_172" data-name="Path 172" d="M372.758,271.534l-3.3,1.905V268.3l3.3-1.905Z" transform="translate(-364.534 -262.167)" fill="#42e8e0"/>
            <path id="Path_173" data-name="Path 173" d="M372.758,277.218l-3.3,1.905v-7.546l3.3-1.905Z" transform="translate(-364.534 -258.028)" fill="#42e8e0"/>
            <path id="Path_174" data-name="Path 174" d="M372.758,280.615l-3.3,1.905v-6.472l3.3-1.907Z" transform="translate(-364.534 -252.383)" fill="#42e8e0"/>
            <path id="Path_175" data-name="Path 175" d="M374.932,285.953l-3.3,1.905V282.72l3.3-1.905Z" transform="translate(-371.632 -243.952)" fill="#42e8e0"/>
            <path id="Path_176" data-name="Path 176" d="M372.758,266.738l-3.3,1.907v-2.213l3.3-1.905Z" transform="translate(-364.534 -264.527)" fill="#42e8e0"/>
          </g>
          <path id="Path_177" data-name="Path 177" d="M376.306,286.835l-5.762,3.326v-2.148l5.762-3.324Z" transform="translate(-370.544 -239.058)" fill="#42e8e0"/>
        </g>
      </g>
      <path id="Path_178" data-name="Path 178" d="M519.223,308.647c-27.85,16.078-73,16.078-100.85,0s-27.852-42.147,0-58.225,73-16.078,100.852,0S547.073,292.566,519.223,308.647Z" transform="translate(-228.495 -28.548)" fill="#180d5b" opacity="0.2"/>
      <g id="Group_306" data-name="Group 306" transform="translate(178.869)">
        <g id="Group_305" data-name="Group 305">
          <path id="Path_179" data-name="Path 179" d="M418.7,241.56l-.14.641-.2-.428s-.971,3.322-.138,4.979a39.428,39.428,0,0,0,3.834,6.032c1.763,2.32,4.585,7.147,5.33,8.075a18.178,18.178,0,0,0,10.432,5.086c5.384.557,6.758-2.524,6.312-4.2s-3.343-6.088-6.5-9.689a48.177,48.177,0,0,1-5.57-8.243Z" transform="translate(-357.629 -24.505)" fill="#160a5b"/>
          <path id="Path_180" data-name="Path 180" d="M407.136,236.7a24.781,24.781,0,0,0,.195,4.873c.362,1.419,8.27,1.865,11.086,2.227a40.5,40.5,0,0,1,9.243,3.119c1.532.751,11.808,1.838,13.061-1.949s-5.151-6.962-9.494-7.967-11.448-3.173-11.448-3.173Z" transform="translate(-329.891 -34.266)" fill="#160a5b"/>
          <path id="Path_181" data-name="Path 181" d="M412.175,220.124a96.678,96.678,0,0,0,2.954,23.058c3.23,13.367,2.84,22.723,2.84,22.723s-3.381,15.132-.41,25.453,5.5,13.218,5.5,13.218,5.941,7.874,13.736.819c0,0-4.382-14.184-4.9-25.471a76.611,76.611,0,0,0,5.2-15.7s1.114,11.76,1.781,16.511c0,0-.668,6.982,1.188,9.8s10.248,3.642,12.921-1.263-2.227-2.5-.742-25.05c0,0,7.722-9.628,8.836-27.338s1-24.731,0-28.185-18.118-15.89-18.118-15.89L433.3,205.143Z" transform="translate(-362.362 -86.083)" fill="#24126a"/>
          <g id="Group_301" data-name="Group 301" transform="translate(49.808 106.732)">
            <path id="Path_182" data-name="Path 182" d="M417.365,229.052a49.311,49.311,0,0,0,1.193-4.934s1.114,11.76,1.781,16.511c0,0-.668,6.982,1.188,9.8,1.193,1.817,5.09,2.793,8.433,1.958-3.576,1.716-8.659.729-10.051-1.392-1.856-2.82-1.188-9.8-1.188-9.8C418.316,238.322,417.75,232.9,417.365,229.052Z" transform="translate(-392.017 -153.27)" fill="url(#linear-gradient-18)"/>
            <path id="Path_183" data-name="Path 183" d="M420.2,220.124l21.128-14.981,9.655-12.328s.272.2.745.548l-8.782,11.215-21.128,14.981a96.73,96.73,0,0,0,2.951,23.058c3.232,13.367,2.84,22.723,2.84,22.723s-3.379,15.132-.407,25.453,5.5,13.218,5.5,13.218,3.648,4.8,8.972,3.506c-6.19,2.861-10.59-2.94-10.59-2.94s-2.528-2.895-5.5-13.218.41-25.453.41-25.453.389-9.356-2.84-22.723A96.678,96.678,0,0,1,420.2,220.124Z" transform="translate(-420.197 -192.815)" fill="url(#linear-gradient)"/>
          </g>
          <path id="Path_184" data-name="Path 184" d="M428.554,221.327c2.782-3.341,4.348-13.813,4.348-13.813s-4.348,8.8-7.469,11.364a21.156,21.156,0,0,0-6.349,11.027c-.557,3.341-3.712,15.755-3.712,15.755s1.114,11.76,1.781,16.511c0,0-.668,6.982,1.188,9.8a4.336,4.336,0,0,0,1.829,1.428c0-.136-.471-15.565,0-22.11C420.644,244.72,425.771,224.67,428.554,221.327Z" transform="translate(-340.643 -67.514)" fill="#160a5b"/>
          <path id="Path_185" data-name="Path 185" d="M460.55,173.32s-7.378,14.417-8.121,15.533-14.555,18.713-15.893,28.886c0,0-1.039,3.936,3.714,7.426s28.739,18.715,30.224,18.937,10.173-4.01,10.545-13.514c0,0-18.788-8.763-22.873-13.145,0,0,7.315-12.29,10.9-15.911a8.354,8.354,0,0,0,1.709-4.54,24.7,24.7,0,0,0-8.017-21.673Z" transform="translate(-436.44 -110.711)" fill="#4846a5"/>
          <path id="Path_186" data-name="Path 186" d="M385.378,166.717s11.414,4.232,15.313,2.786,13.48-2.675,20.05-6.351,35.276-11.083,39.526-11.344c0,0,.075.167-.631.464s-3.655.557-4.456,3.9.966,7.351,1.451,7.63.76-.91,3.508-2.173a10.744,10.744,0,0,1,4.438-1.188l1.039,1.319.629.964s-1.356,4.049-5.031,4.327-27.288,10.137-28.775,10.581-21.311,8.994-25.025,10.327A43.211,43.211,0,0,0,400.8,191s-11.586-7.725-11.957-7.725S385.378,166.717,385.378,166.717Z" transform="translate(-306.099 -137.886)" fill="#24126a"/>
          <path id="Path_187" data-name="Path 187" d="M408.955,151.22c-.482.111-6.462,2.116-6.462,2.116s2.376,1.224,2.6,2.3a37.03,37.03,0,0,1-.706,7.5,8.415,8.415,0,0,1-1.82,1.41c-.371.224-1.3,2.3-2.155,2.044a1.962,1.962,0,0,1-1.114-1.338s-.668-.335-.874-.464-4.472.26-5.882,1.17a9.682,9.682,0,0,1-5.962.982,25.941,25.941,0,0,1-3.694-1.614,9.227,9.227,0,0,0-2.284.65c-.817.428-3.415,2.173-3.8,2.32s-5.719-10.3,3.8-12.272a23.232,23.232,0,0,0,5.663-1.17c1.709-.815,6.534-4.529,8.318-4.6a11.829,11.829,0,0,1,3.6.521s10.769-3.083,11.658-2.116S409.44,151.109,408.955,151.22Zm-7.795,7.166a2.974,2.974,0,0,1-2.17-1.3,1.47,1.47,0,0,1-1.657-.127c0,.195-1.476.475-1.476.475s-.668.557-1.5,1.168.278,2.424.278,2.424a5.5,5.5,0,0,0,2.548-.711,15.107,15.107,0,0,1,2.046-.543A12.459,12.459,0,0,0,401.16,158.385Z" transform="translate(-226.436 -142.104)" fill="#fcd1c5"/>
          <path id="Path_188" data-name="Path 188" d="M461.063,208.706c-1-3.454-18.118-15.89-18.118-15.89l-4.8,6.122-4.115,16.008-21.863,6.8v0c0,.018,1.161,10.941,18.969,9.68,17.823-1.263,19.9-15.076,19.9-15.076s1.978,4.538,10.755,5.722C462,214.758,461.722,210.969,461.063,208.706Z" transform="translate(-362.349 -86.083)" fill="#160a5b"/>
          <path id="Path_189" data-name="Path 189" d="M425.989,167.381l-3.006,7.725s-14.494,12.536-18.652,17.067c0,0,7.159,13.731,8.5,28.212,0,0,6.627,5.4,8.632,7.89s7.073,14,8.689,17.787-2.895,15.2-2.895,15.2,6.161,11.38,16.076,11.009S460,265.85,461.265,255.083s.89-12.328.89-12.328,4.456,13.22,11.215,13.22S490.857,244.5,490.857,244.5s7.24-6.57,6.57-9.54-17.043-28.667-17.932-32.9-4.567-19.38-4.567-19.38L459.5,158.4l-9.411.446Z" transform="translate(-380.222 -129.564)" fill="#453c9e"/>
          <g id="Group_302" data-name="Group 302" transform="translate(47.028 124.12)">
            <path id="Path_190" data-name="Path 190" d="M436.752,216.37c9.483-.355,16.022-5.961,17.681-15.872-.05.455-.1.908-.158,1.4-1.265,10.766-8.021,16.821-17.934,17.192s-16.081-11.009-16.081-11.009.33-.835.772-2.109C422.464,208.3,428.21,216.69,436.752,216.37Z" transform="translate(-420.259 -200.498)" fill="url(#linear-gradient)"/>
          </g>
          <path id="Path_191" data-name="Path 191" d="M423.471,162.366a26.73,26.73,0,0,0,1.745,9.171c1.82,4.567,7.761,30.3,21.239,39.1l5.181,3.286V197.549s-.093-10.083-2.395-16.468a47.4,47.4,0,0,1-2.229-14.184s-3.777-1.041-3.782-.966S423.471,162.366,423.471,162.366Z" transform="translate(-377.705 -124.549)" fill="#f0f6ff"/>
          <path id="Path_192" data-name="Path 192" d="M448.349,193.761s2.392.975,3.422-.586,2.089-4.705,1.813-6.154c0,0,6.378.315,7.639-3.026s-.111-4.214-.315-5.253a26.046,26.046,0,0,0-1.245-5.756l-.093-.853s1.3-1.114.706-2.286-4.076-4.807-4.434-5.418.088-5.126-1.265-7.371a55.107,55.107,0,0,0-3.974-5.366s-13.589-10.6-24.283,0,5.421,30.113,5.421,30.113,1.29,6.3,4.409,8.809S448.349,193.761,448.349,193.761Z" transform="translate(-385.974 -143.987)" fill="#fcd1c5"/>
          <path id="Path_193" data-name="Path 193" d="M446.573,169.616a3.3,3.3,0,0,0-.17-1.152,5.62,5.62,0,0,1,2.189-6.674c4.083-2.969,11.287-5.642,11.065-8.612s-11.586-10.325-19.978-6.387-16.262,13.885-10.545,24.43S439.9,183.474,439.9,183.474s1.709-.353.177-2.107-4.316-6.181-2.005-7.575,6.321,1.616,6.851,2.284a8.118,8.118,0,0,1,.591.885,1.129,1.129,0,0,0,1.448.453l.2-.091a1.128,1.128,0,0,0,.579-1.41l-1-2.727a3.488,3.488,0,0,1-.211-1.274Z" transform="translate(-394.136 -145.657)" fill="#aa8383"/>
          <path id="Path_194" data-name="Path 194" d="M429.536,168.961a16.124,16.124,0,0,0-4.809,6.276s3.232-3.343,5.07-4.011c0,0,3.565,1.67,3.565,2.784a73.377,73.377,0,0,0,1.17,11.389c.835,3.594.738,16.219.738,16.219l2.254,1.489,1.071-5.536-.41-11.808-2.094-10.751s-.392-4.065-.557-4.287S429.536,168.961,429.536,168.961Z" transform="translate(-367.506 -116.218)" fill="#c4ccd6"/>
          <path id="Path_195" data-name="Path 195" d="M423.234,171.057s3.454-3.676,5.2-3.75a2.922,2.922,0,0,1,2.716,1.082c.036.213,1.677,5.964,1.677,5.964a72.075,72.075,0,0,1,2.924,21.732c-.335,11.694-.613,11.6-.613,11.6l-4.282-2.716a53.932,53.932,0,0,0-1.177-18.059c-2.338-9.689-.278-11.138-1.392-12.14S422.7,172.245,423.234,171.057Z" transform="translate(-361.203 -118.313)" fill="#24126a"/>
          <path id="Path_196" data-name="Path 196" d="M441.309,193.675c2.005,2.49,6.966,13.983,8.582,17.769a5.918,5.918,0,0,1,.45,2.374l.656.428,2.168-2.116s-1.944-7.018-5.063-15.707-15.427-10.637-15.427-10.637S439.3,191.187,441.309,193.675Z" transform="translate(-400.071 -94.964)" fill="#24126a"/>
          <path id="Path_197" data-name="Path 197" d="M432.385,201.988s3.528-5.124,4.642-5.794c0,0-.26,1.448,1.745,2.34s12.493,4.957,12.856,5.43-.027,1.059-.695,1.2a14.264,14.264,0,0,0,3.062.724c.892-.02,2.08,1.111,1.487,2.078s-1.1.892-1.1.892.263,1.077-.389,1.317a9.886,9.886,0,0,1-2.209.278s.315,1.077-.557,1.505a32.867,32.867,0,0,1-5.124.892s-3.323-.355-4.271-.371-5.271,1.039-7.109.779a55.748,55.748,0,0,1-8.521-2.775C425.59,210.12,432.385,201.988,432.385,201.988Z" transform="translate(-387.806 -81.815)" fill="#fcd1c5"/>
          <path id="Path_198" data-name="Path 198" d="M426.907,166.886l.444,6.908,3.734,1.168-2.508,2.062s10.117,23,23.04,30.278c0,0-12.328-4.379-23.989-30.075,0,0,1.227-1.449,1.6-1.856l-2.6-1.152Z" transform="translate(-384.834 -118.839)" fill="#24126a"/>
          <path id="Path_199" data-name="Path 199" d="M421.672,166.566s4.581,23.468.677,41.14c0,0,4.694-8.5.448-41.14Z" transform="translate(-346.57 -119.243)" fill="#24126a"/>
          <path id="Path_200" data-name="Path 200" d="M385.379,152.417a8.2,8.2,0,0,0-2.354-1.8s-4.882,1.987-5.717,2.376C377.308,153,382.317,152.471,385.379,152.417Z" transform="translate(-206.968 -139.388)" fill="#e2b1a6"/>
          <path id="Path_201" data-name="Path 201" d="M390.592,163.809c.2-.075.978-.57,1.8-1.093h0c-3.243-4.364.319-10.669.33-10.692C385.547,154.819,390.227,163.947,390.592,163.809Z" transform="translate(-240.227 -137.614)" fill="#e2b1a6"/>
          <path id="Path_202" data-name="Path 202" d="M435.8,207.438a60.152,60.152,0,0,0,6.419,2.256s1.618-6.342,1.254-8.465-1.254-2.625-1.254-2.625l-.238.34S435.183,207.075,435.8,207.438Z" transform="translate(-397.399 -78.77)" fill="#e2b1a6"/>
          <path id="Path_203" data-name="Path 203" d="M444.6,198.623a7.4,7.4,0,0,1-1.392,6.507c-2.478,2.84-2.754,3.2-2.754,3.2h-2.843s-1.476-4.484-1.254-4.6S444.6,198.623,444.6,198.623Z" transform="translate(-400.022 -78.746)" fill="#4846a5"/>
          <path id="Path_204" data-name="Path 204" d="M423.189,169.6h0s2.729,16.092,2.118,21.995a102.942,102.942,0,0,0-.389,12.29l.862.751.251.158s.278.093.613-11.6a72.075,72.075,0,0,0-2.924-21.732S423.484,170.632,423.189,169.6Z" transform="translate(-352.101 -115.417)" fill="#24126a"/>
          <g id="Group_303" data-name="Group 303" transform="translate(67.424 178.145)">
            <path id="Path_205" data-name="Path 205" d="M427.675,267.316a13.4,13.4,0,0,0,2.451-1.781s-4.382-14.184-4.9-25.471a76.611,76.611,0,0,0,5.2-15.7c-.371,1.469-4.866,9.42-6.9,17.552S427.675,267.316,427.675,267.316Z" transform="translate(-423.118 -224.368)" fill="#160a5b"/>
          </g>
          <g id="Group_304" data-name="Group 304" transform="translate(52.041 35.182)">
            <path id="Path_206" data-name="Path 206" d="M433.148,161.24l-.009-.038Z" transform="translate(-433.139 -161.202)" fill="#e2b1a6"/>
            <path id="Path_207" data-name="Path 207" d="M426.244,161.219c.079.4,1.247,6.129,3.558,8.816,2.392,2.784,4.241,5.47,4.241,5.47,1.489.192,2.526.267,2.526.267s2.392.975,3.422-.586,2.089-4.705,1.813-6.154c0,0-8.605-.889-11.891-3.173C426.862,163.738,426.31,161.525,426.244,161.219Z" transform="translate(-426.235 -161.181)" fill="#e2b1a6"/>
          </g>
          <path id="Path_208" data-name="Path 208" d="M434.182,196.494s.462.975.545,1.052.2-.749.2-.749-.385-.8-.405-.8S434.182,196.494,434.182,196.494Z" transform="translate(-385.242 -82.059)" fill="#1b2b3a"/>
          <path id="Path_209" data-name="Path 209" d="M419.936,185.145s6,19.175,8,23.819l-.118,4.613S420.178,189.769,419.936,185.145Z" transform="translate(-346.005 -95.773)" fill="#24126a"/>
          <path id="Path_210" data-name="Path 210" d="M424.723,189.022a1.97,1.97,0,1,1-2.5-1.453A2.045,2.045,0,0,1,424.723,189.022Z" transform="translate(-344.991 -92.812)" fill="#24126a"/>
          <path id="Path_211" data-name="Path 211" d="M423.376,192.675a1.969,1.969,0,1,1-2.494-1.453A2.042,2.042,0,0,1,423.376,192.675Z" transform="translate(-340.602 -88.196)" fill="#24126a"/>
        </g>
        <path id="Path_212" data-name="Path 212" d="M448.34,161.251a3.488,3.488,0,0,1-.211-1.274l.045-2.295a3.3,3.3,0,0,0-.17-1.152,6.613,6.613,0,0,1-.312-1.426s-9.347,6.806-15.273,7.075c4.991,7.974,9.085,9.361,9.085,9.361s1.709-.353.177-2.107-4.316-6.181-2.005-7.575,6.321,1.616,6.851,2.284a8.118,8.118,0,0,1,.591.885,1.133,1.133,0,0,0,1.448.455l.2-.093a1.128,1.128,0,0,0,.579-1.41Z" transform="translate(-395.738 -133.723)" fill="#936d6d"/>
      </g>
      <g id="Group_315" data-name="Group 315" transform="translate(182.217 48.613)">
        <g id="Group_309" data-name="Group 309" transform="translate(0)">
          <path id="Path_213" data-name="Path 213" d="M448.648,268.614a48.036,48.036,0,0,0,8.306,1.2c4.087.158,15.193,2.386,14.917,6.532-.276,4.167-6.084,10.148-13.356,11.031s-16.637-1.209-21.393-1.077a6.658,6.658,0,0,1-6.145-9.363C432.83,272.326,448.648,268.614,448.648,268.614Z" transform="translate(-417.082 -38.941)" fill="#160a5b"/>
          <path id="Path_214" data-name="Path 214" d="M437.083,272.441s-1.555,2.508-.794,4.044,2.8,5.364,9.452,1.659c6.618-3.685,19.4-8.956,19.4-8.956s7.328-3.9,6.928-8.5c-.4-4.572-7.141-3.891-7.141-3.891Z" transform="translate(-430.035 -53.912)" fill="#160a5b"/>
          <path id="Path_215" data-name="Path 215" d="M475.761,237.753s-2.825,29.875-8.827,41.194c-6.1,11.507-7.786,32.587-9.058,36.611-1.281,4.044-5.233,9.861-11.461,11.1s-7.256-3.006-6.946-5.554,2.037-6.641,2.057-9.395-.616-4.026-.711-5.287c0,0-7.136,2.1-8.22-3.427a15.581,15.581,0,0,0,.674-2.433c.1-.822-.611-20.82-.783-23.242s1.129-15.49,3.112-21.933c1.965-6.385,1.313-19.971,1.313-19.971l20.313-2.834Z" transform="translate(-425.547 -84.464)" fill="#24126a"/>
          <path id="Path_216" data-name="Path 216" d="M447.489,253.94c1.965-6.385,1.313-19.971,1.313-19.971l1.774-.247c.079,1.881.5,13.806-1.3,19.672-1.971,6.439-3.259,19.5-3.083,21.915s.905,22.4.813,23.224a15.7,15.7,0,0,1-.67,2.431c1.091,5.525,8.22,3.424,8.22,3.424.1,1.261.736,2.542.72,5.282s-1.745,6.856-2.048,9.39.72,6.781,6.953,5.545c.195-.039.369-.12.559-.165a12.463,12.463,0,0,1-2.435.767c-6.235,1.236-7.256-3-6.948-5.552s2.039-6.641,2.06-9.395a32.611,32.611,0,0,0-.715-5.536s-7.132,2.352-8.216-3.178a15.582,15.582,0,0,0,.674-2.433c.1-.822-.611-20.82-.783-23.244S445.506,260.384,447.489,253.94Z" transform="translate(-437.437 -83.02)" fill="url(#linear-gradient-21)"/>
          <path id="Path_217" data-name="Path 217" d="M450.308,235.687a23,23,0,0,0,2.03,8.582s-.041,15.879,1.591,23.916c0,0-2.628,16.146-4.284,21.232-1.67,5.124-1.446,15.11-1.446,15.11a6.941,6.941,0,0,1-1.976.342c-1.166.043-1.247-19.734.541-23.224,1.777-3.472,3.128-18.887,2.456-23.586-.668-4.669-.437-18.027-1.322-20.385a2.983,2.983,0,0,1,1.107-3.6Z" transform="translate(-432.931 -82.572)" fill="#160a5b"/>
          <path id="Path_218" data-name="Path 218" d="M436.943,187.174s5.9,4.269,5.6,11.64l-4.386-.944S439.462,189.709,436.943,187.174Z" transform="translate(-402.464 -141.823)" fill="#160a5b"/>
          <path id="Path_219" data-name="Path 219" d="M453.286,244.086c-13.464.412-20.729-5.554-20.729-5.554-.027-1.888-.086-3.119-.086-3.119l20.313-2.834,18.536,5.174s-.557,5.891-1.7,13.435c-3.3.355-6.545-7.756-6.545-7.756l-9.234.586S466.746,243.671,453.286,244.086Z" transform="translate(-421.107 -84.464)" fill="#160a5b"/>
          <path id="Path_220" data-name="Path 220" d="M478.722,302.662s-29.276,11.95-43.426-10.717a3.962,3.962,0,0,1-.564-2.227l.179-5.285a5.482,5.482,0,0,0-.283-1.958h0a8.429,8.429,0,0,1-.292-4.219c1.1-5.9,4.065-21.954,4.762-26.41.846-5.432-2.032-27.175-6.887-36.59-4.787-9.282,7.505-30.154,7.505-30.154a7.971,7.971,0,0,1,8.92-3.2s-5.631,3.938-2.548,8.1c3.1,4.187,12.355,7.528,12.355,7.528s17.11,8.881,22.968,19.684a45.131,45.131,0,0,1,2.191,12.724c.181,7.186-.613,24.432-.315,26.827s1.211,18.837,1.116,19.6S478.722,302.662,478.722,302.662Z" transform="translate(-431.105 -148.929)" fill="#453c9e"/>
          <g id="Group_307" data-name="Group 307" transform="translate(0.02 32.664)">
            <path id="Path_221" data-name="Path 221" d="M447.2,184.888a4.216,4.216,0,0,1,.106-3.313,8.456,8.456,0,0,1,2.648.3A10.54,10.54,0,0,0,447.2,184.888Z" transform="translate(-432.444 -181.568)" fill="url(#linear-gradient-22)"/>
            <path id="Path_222" data-name="Path 222" d="M450.066,273.421s-17.239-46.553-16.42-63.451c.8-16.474,25.165,33.381,25.165,33.381l.127,27.626A52.615,52.615,0,0,1,450.066,273.421Z" transform="translate(-411.341 -149.907)" fill="#24126a"/>
            <path id="Path_223" data-name="Path 223" d="M432.02,226.467a5.465,5.465,0,0,1,.283,1.946l-.177,5.249a3.909,3.909,0,0,0,.561,2.211c14.112,22.513,43.283,10.644,43.283,10.644s4.013-18.31,5.269-24.24c.066,1.446.1,2.458.075,2.632-.1.77-5.681,26.3-5.681,26.3s-29.276,11.95-43.426-10.717a3.962,3.962,0,0,1-.564-2.227l.179-5.285a5.475,5.475,0,0,0-.283-1.958,8.429,8.429,0,0,1-.292-4.219c.115-.616.254-1.363.405-2.175A8.146,8.146,0,0,0,432.02,226.467Z" transform="translate(-428.036 -130.14)" fill="url(#linear-gradient-23)"/>
            <path id="Path_224" data-name="Path 224" d="M452.409,197.836c4.846,9.356,7.722,30.959,6.878,36.355-.077.5-.186,1.154-.315,1.908.023-7.79-2.718-25.792-7.025-34.146-1.344-2.6-1.311-6.145-.607-9.872A11.894,11.894,0,0,0,452.409,197.836Z" transform="translate(-450.86 -168.289)" fill="url(#linear-gradient-24)"/>
          </g>
          <path id="Path_225" data-name="Path 225" d="M454.578,227.1a75.909,75.909,0,0,1-1.032-11.418c-.075-6.62-1.935-17.6-13.915-15.7-16.936,2.7-9.691,26.419-7.833,30.561,1.867,4.171,9.275,22.959,9.667,24.027.367,1,12.075,24.459,16.257,30.084a1.029,1.029,0,0,0,1.526.192c1.7-1.442,5.507-4.884,6-7.061.638-2.8-1.806-12.946-1.806-12.946s-6.6-25.358-7.152-26.539C455.877,237.419,455.59,233.252,454.578,227.1Z" transform="translate(-406.531 -125.917)" fill="#4846a5"/>
          <path id="Path_226" data-name="Path 226" d="M453.235,212.023a5.977,5.977,0,0,1,4.454-3.377c3.105-.315,4.866-1.177,5.181-2.329a22.162,22.162,0,0,1,1.08-4.25,31.471,31.471,0,0,0,1.374-6.009c-.011-.1,2.347-.81,2.462-1.849s-1.107-4.744-.975-5.029,1.4-2.56,1.231-4.325a21.77,21.77,0,0,0-1.342-6.482c-.939-2.159-7.521-15.291-24.645-8.528-17.316,6.84-4.144,21.368-5.857,30.785,0,0-1.541,1.983,1.281,5.353C440.314,209.37,448.511,210.106,453.235,212.023Z" transform="translate(-419.048 -166.138)" fill="#fcd1c5"/>
          <path id="Path_227" data-name="Path 227" d="M437.416,192.44c-2.822-3.37-1.281-5.353-1.281-5.353a13,13,0,0,0-.036-4.194l6.776,1.292s10.008-8.9,9.3-4.135c-.715,4.8,1.716,5.629,1.716,5.629l-2.053,2.614c-.527.672-.215,1.46.215,2.2,2.856,4.914,9.791,3.436,9.807,3.438a9.862,9.862,0,0,1-4.23,1.175,5.977,5.977,0,0,0-4.454,3.377C448.45,196.563,440.252,195.828,437.416,192.44Z" transform="translate(-418.986 -152.595)" fill="#e2b1a6"/>
          <g id="Group_308" data-name="Group 308" transform="translate(13.082)">
            <path id="Path_228" data-name="Path 228" d="M468.423,174.378s1.2,3.513-.74,4.993-3.7,2.879-3.7,2.879l.009,4.456a3.32,3.32,0,0,1-.534,1.808l-2.44,3.764a4.535,4.535,0,0,0-.731,2.453l-.014,1.822a1.046,1.046,0,0,1-.917,1.043l-.643.072a1.037,1.037,0,0,1-1.134-.937l-.267-2.53s-1.279-2.035-4.1.389l-2.526,1.037a2.724,2.724,0,0,0-1.525,1.6c-.711,1.949-2.225,5.794-3.357,6.432-1.53.865-7.458-2.2-8.247-3.553s-2.788-10.382-4.026-14.686c-1.229-4.275-.5-14.856,12.253-17.556C458.492,165.171,466.669,170.551,468.423,174.378Z" transform="translate(-433.114 -167.136)" fill="#aa8383"/>
            <path id="Path_229" data-name="Path 229" d="M439.259,191.006c-.79-1.351-2.788-10.382-4.026-14.686a31.263,31.263,0,0,0,11.337,4.264c6.414.978,19.113-6.244,19.113-6.244l.007,3.268a3.32,3.32,0,0,1-.534,1.808l-2.44,3.764a4.535,4.535,0,0,0-.731,2.453l-.014,1.822a1.046,1.046,0,0,1-.917,1.043l-.643.072a1.037,1.037,0,0,1-1.134-.937l-.267-2.53s-1.279-2.035-4.1.389l-3.653,1.5s-2.225,6.7-3.755,7.566S440.049,192.362,439.259,191.006Z" transform="translate(-434.81 -158.037)" fill="#936d6d"/>
          </g>
          <path id="Path_230" data-name="Path 230" d="M441.82,181.893s-4.961,3.055-2.487,7.39c2.487,4.364,20.469,12.113,21.356,13.261,0,0,.711-6.5-1.67-8.7,0,0-13.77-2.684-15.909-6.2C440.982,184.149,441.82,181.893,441.82,181.893Z" transform="translate(-424.54 -148.494)" fill="#f0f6ff"/>
          <path id="Path_231" data-name="Path 231" d="M443.523,181.893s-.837,2.256,1.29,5.753c1.618,2.659,9.891,4.841,13.824,5.746h0s-1.462.831-3.906,5c-5.534-2.868-12.242-6.559-13.7-9.105C438.562,184.948,443.523,181.893,443.523,181.893Z" transform="translate(-426.243 -148.494)" fill="#c4ccd6"/>
          <path id="Path_232" data-name="Path 232" d="M431.8,188.02s8.01,4.592,11.914,6.665,8.184,4.843,8.184,4.843l1.5-1.494,1.8,3.952s6.149,3.7,9.028,6.776a31.344,31.344,0,0,1,5.382,8.053s-7.679-10.074-13.729-13.066l-1.63-.824-.919-3.13-1.487,1.571S434.24,190.754,431.8,188.02Z" transform="translate(-417.874 -140.754)" fill="#24126a"/>
        </g>
        <g id="Group_314" data-name="Group 314" transform="translate(34.246 153.469)">
          <path id="Path_233" data-name="Path 233" d="M422.136,264.656l0-.007,0,0a3.977,3.977,0,0,1,1.07-1.722l32.951-27.664c.867-.729,1.706-.172,1.874,1.243l3.854,32.207A5.158,5.158,0,0,1,460.6,272.8l-27.673,23.93.957,9.313-8.272-3.807,0-.018a2,2,0,0,1-.717-1.575l-3.078-33.662A5.707,5.707,0,0,1,422.136,264.656Z" transform="translate(-421.799 -234.944)" fill="url(#linear-gradient-25)"/>
          <path id="Path_234" data-name="Path 234" d="M463.377,238.44l-7.788-3.366-.251-.109a1.068,1.068,0,0,0-.935.3l-32.951,27.664a3.972,3.972,0,0,0-1.073,1.72l1.179.57h0l6.708,3.243,28.882-24.695h0Z" transform="translate(-420.042 -234.944)" fill="#453c9e"/>
          <path id="Path_235" data-name="Path 235" d="M457.16,274.5l-33.7,29.357c-.923.806-1.8.19-1.946-1.371l-3.275-33.834a5.238,5.238,0,0,1,1.372-4.069l32.877-27.8c.865-.733,1.711-.174,1.888,1.247l4.049,32.369A5.179,5.179,0,0,1,457.16,274.5Z" transform="translate(-410.244 -233.036)" fill="#24126a"/>
          <path id="Path_236" data-name="Path 236" d="M425.773,301.544,422.6,267.8a5.24,5.24,0,0,1,1.383-4.058l32.913-27.73a1.163,1.163,0,0,1,.781-.321,1.014,1.014,0,0,0-1.055.258L423.7,263.677a5.252,5.252,0,0,0-1.383,4.058l3.169,33.743c.1,1.073.518,1.74,1.089,1.761C426.149,303.052,425.859,302.431,425.773,301.544Z" transform="translate(-418.689 -234.077)" fill="#160a5b"/>
          <g id="Group_313" data-name="Group 313" transform="translate(13.649 0.479)">
            <g id="Group_310" data-name="Group 310" transform="translate(0 16.23)">
              <path id="Path_237" data-name="Path 237" d="M433.479,243.4l-1.72-.86a1.642,1.642,0,0,0-1.075-.19l-.138.029c-.172.036-.263.222-.233.484l.034.315,4.848,2.424-.032-.312a1.494,1.494,0,0,0-.369-.79l-.161-.179A4.02,4.02,0,0,0,433.479,243.4Z" transform="translate(-427.978 -242.327)" fill="#160a5b"/>
              <path id="Path_238" data-name="Path 238" d="M435.085,247.483l2.327-1.967L432.6,242.4l-2.3,1.921Z" transform="translate(-430.195 -242.235)" fill="#160a5b"/>
              <path id="Path_239" data-name="Path 239" d="M434.509,244.272l-1.722-.862a1.657,1.657,0,0,0-1.075-.192l-.138.032c-.172.036-.263.222-.233.489l.032.312,4.852,2.433-.034-.317a1.474,1.474,0,0,0-.367-.79l-.161-.181A4.038,4.038,0,0,0,434.509,244.272Z" transform="translate(-431.335 -241.235)" fill="url(#linear-gradient-26)"/>
              <path id="Path_240" data-name="Path 240" d="M432.629,244.832l-.146-1.423.146.075.148,1.421Z" transform="translate(-430.487 -240.961)" fill="#722318"/>
              <path id="Path_241" data-name="Path 241" d="M431.5,244.485l2.394-1.927.124.064-2.372,1.936Z" transform="translate(-429.505 -242.036)" fill="#722318"/>
            </g>
            <g id="Group_311" data-name="Group 311" transform="translate(10.511 7.442)">
              <path id="Path_242" data-name="Path 242" d="M428.837,239.508l-1.718-.849a1.666,1.666,0,0,0-1.068-.19l-.136.032c-.172.036-.26.22-.229.48l.034.308,4.837,2.395-.034-.31a1.494,1.494,0,0,0-.371-.776l-.163-.181A4.057,4.057,0,0,0,428.837,239.508Z" transform="translate(-423.38 -238.444)" fill="#160a5b"/>
              <path id="Path_243" data-name="Path 243" d="M430.452,243.535l2.3-1.943-4.8-3.077-2.266,1.9Z" transform="translate(-425.57 -238.353)" fill="#160a5b"/>
              <path id="Path_244" data-name="Path 244" d="M429.854,240.366l-1.718-.851a1.646,1.646,0,0,0-1.071-.19l-.138.029c-.17.036-.256.222-.229.48l.034.312,4.844,2.4-.036-.31a1.494,1.494,0,0,0-.373-.781l-.158-.179A4.026,4.026,0,0,0,429.854,240.366Z" transform="translate(-426.694 -237.365)" fill="url(#linear-gradient-27)"/>
              <path id="Path_245" data-name="Path 245" d="M428,240.917l-.157-1.406.146.073.157,1.406Z" transform="translate(-425.857 -237.095)" fill="#722318"/>
              <path id="Path_246" data-name="Path 246" d="M426.875,240.575l2.363-1.9.126.062-2.343,1.912Z" transform="translate(-424.891 -238.156)" fill="#722318"/>
            </g>
            <g id="Group_312" data-name="Group 312" transform="translate(1.046)">
              <path id="Path_247" data-name="Path 247" d="M427.462,247.09l.618,6.007,1.557-1.31-.607-5.835a3.114,3.114,0,0,1,.93-2.453l6.711-5.611c.6-.5,1.159-.222,1.254.62l.643,5.774,1.537-1.3-.665-5.921c-.208-1.851-1.446-2.46-2.763-1.36l-7.152,5.971A6.9,6.9,0,0,0,427.462,247.09Z" transform="translate(-427.436 -235.156)" fill="#453c9e"/>
              <path id="Path_248" data-name="Path 248" d="M439.014,236.343l-2.766-.283-7.989,7.453-.344,4.6.158,3.843,1.788.894.054-4.791.1-3.273,1.657-2.37s3-2.419,3.028-2.487S439.014,236.343,439.014,236.343Z" transform="translate(-427.43 -234.014)" fill="#453c9e"/>
              <path id="Path_249" data-name="Path 249" d="M429.586,242.444l-1.784-.882-.475-4.255,1.7.135.5.088Z" transform="translate(-416.671 -232.438)" fill="#453c9e"/>
              <path id="Path_250" data-name="Path 250" d="M429.273,236.129l-1.919-.939.511,1.037.643.222C428.517,236.446,429.273,236.129,429.273,236.129Z" transform="translate(-416.419 -235.113)" fill="#453c9e"/>
              <path id="Path_251" data-name="Path 251" d="M426.674,247.489l.627,6.016,1.557-1.313-.616-5.844a3.129,3.129,0,0,1,.93-2.456l6.706-5.615c.6-.5,1.159-.224,1.254.618l.652,5.78,1.539-1.295-.677-5.928c-.21-1.858-1.448-2.465-2.766-1.365l-7.15,5.98A6.894,6.894,0,0,0,426.674,247.489Z" transform="translate(-424.869 -234.67)" fill="#160a5b"/>
            </g>
          </g>
        </g>
        <path id="Path_252" data-name="Path 252" d="M434.246,234.13s1.138,5.875.817,7.349-3.13,4.321-4.823,4.843-1-1.5-1.385-2.768a18.266,18.266,0,0,1-.312-4.024Z" transform="translate(-376.005 -82.504)" fill="#fcd1c5"/>
        <path id="Path_253" data-name="Path 253" d="M428.725,239.53l5.7-5.4s.235,1.2.459,2.659c0,.007-2.121,4.37-5.993,6.1A23.081,23.081,0,0,1,428.725,239.53Z" transform="translate(-376.188 -82.504)" fill="#e2b1a6"/>
        <path id="Path_254" data-name="Path 254" d="M435.828,235.009s-2.023,6.326-7.093,6.926l1.722-6.926s4.282-1.209,4.413-1.227S435.828,235.009,435.828,235.009Z" transform="translate(-377.159 -82.944)" fill="#4846a5"/>
        <path id="Path_255" data-name="Path 255" d="M434.253,201.509c-4.7,14.306,7.07,36.55,8.766,43.041,1.707,6.559,19.6,36.919,19.607,36.925l-.02.016c.1.181.17.3.17.3a10.15,10.15,0,0,1-1.17.8,3.705,3.705,0,0,1-.8.3h0a1.023,1.023,0,0,1-1.032-.432c-4.182-5.624-15.891-29.081-16.257-30.084-.392-1.068-7.8-19.856-9.667-24.027C432.359,225.018,427.386,209.019,434.253,201.509Z" transform="translate(-408.581 -123.714)" fill="url(#linear-gradient-28)"/>
      </g>
      <g id="Group_340" data-name="Group 340" transform="translate(0 140.109)">
        <g id="Group_321" data-name="Group 321" transform="translate(318.779)">
          <path id="Path_256" data-name="Path 256" d="M403.814,314.112a6.75,6.75,0,0,0,3.331-.781L482.033,270.1a2.643,2.643,0,0,0,1.5-2.254,3.432,3.432,0,0,0-2-2.782L407.648,222.4a8.275,8.275,0,0,0-7.562-.29L325.2,265.349a2.633,2.633,0,0,0-1.5,2.257,3.429,3.429,0,0,0,2,2.779l73.885,42.658A8.658,8.658,0,0,0,403.814,314.112Zm2.752-1.786a7.237,7.237,0,0,1-6.405-.287l-73.883-42.656c-.889-.514-1.419-1.177-1.419-1.779a1.561,1.561,0,0,1,.919-1.247l74.885-43.238a7.266,7.266,0,0,1,6.405.287l73.883,42.661c.889.512,1.419,1.175,1.419,1.777a1.567,1.567,0,0,1-.917,1.249Z" transform="translate(-323.7 -190.167)" fill="#8686f2" style="mix-blend-mode: lighten;isolation: isolate"/>
          <g id="Group_320" data-name="Group 320" transform="translate(0.578)">
            <g id="Group_316" data-name="Group 316">
              <path id="Path_257" data-name="Path 257" d="M323.785,227.852v9.19l79.529,45.915,79.531-45.918v-9.19Z" transform="translate(-323.785 -181.934)" fill="url(#linear-gradient-29)"/>
              <path id="Path_258" data-name="Path 258" d="M403.314,299.4l79.531-45.918-79.529-45.915L323.785,253.48Z" transform="translate(-323.785 -207.563)" fill="#bcbeff"/>
              <path id="Path_259" data-name="Path 259" d="M403.314,272.993l78.6-45.381.93.537-79.531,45.918-79.529-45.915.93-.537Z" transform="translate(-323.785 -182.234)" fill="#fff"/>
            </g>
            <g id="Group_319" data-name="Group 319" transform="translate(18.36 1.705)">
              <path id="Path_260" data-name="Path 260" d="M393.067,282.882l61.168-35.315-61.166-35.316L331.9,247.567Z" transform="translate(-331.898 -203.345)" fill="#0f054c"/>
              <g id="Group_318" data-name="Group 318">
                <path id="Path_261" data-name="Path 261" d="M393.066,282.884l61.17-35.317-61.168-35.316L331.9,247.569Z" transform="translate(-331.897 -203.345)" opacity="0.5" fill="url(#linear-gradient-30)"/>
                <g id="Group_317" data-name="Group 317">
                  <path id="Path_262" data-name="Path 262" d="M420.094,208.316l-61.171,35.316v8.905l61.171-35.316Z" transform="translate(-358.924 -208.316)" opacity="0.5" fill="url(#linear-gradient-30)"/>
                  <path id="Path_263" data-name="Path 263" d="M331.9,217.221l61.17,35.316v-8.905L331.9,208.316Z" transform="translate(-270.729 -208.316)" opacity="0.5" fill="url(#linear-gradient-30)"/>
                  <path id="Path_264" data-name="Path 264" d="M393.066,278.947l61.17-35.315-61.168-35.316L331.9,243.632Z" transform="translate(-331.897 -208.316)" opacity="0.5" fill="url(#linear-gradient-30)"/>
                  <path id="Path_265" data-name="Path 265" d="M372.566,245.909,397.009,231.8l-24.441-14.111L348.125,231.8Z" transform="translate(-311.397 -196.48)" fill="#42e8e0" opacity="0.5"/>
                  <path id="Path_266" data-name="Path 266" d="M372.568,218.984,349.25,232.446l-1.125-.65,24.443-14.111L397.009,231.8l-1.125.649Z" transform="translate(-311.397 -196.48)" fill="#42e8e0" opacity="0.5"/>
                  <path id="Path_267" data-name="Path 267" d="M420.093,259.235v8.907l-61.168-35.317V223.92Z" transform="translate(-358.925 -188.604)" opacity="0.5" fill="url(#linear-gradient-30)"/>
                </g>
                <path id="Path_268" data-name="Path 268" d="M393.068,223.92v8.905L331.9,268.142v-8.907Z" transform="translate(-270.729 -188.604)" opacity="0.5" fill="url(#linear-gradient-30)"/>
              </g>
              <path id="Path_269" data-name="Path 269" d="M393.066,258.536l60.328-34.831.842.486-61.17,35.315L331.9,224.191l.842-.485Z" transform="translate(-331.897 -188.875)" fill="#42e8e0" opacity="0.8"/>
            </g>
          </g>
        </g>
        <g id="Group_327" data-name="Group 327" transform="translate(318.779 208.602)">
          <path id="Path_270" data-name="Path 270" d="M403.814,406.28a6.75,6.75,0,0,0,3.331-.781l74.888-43.236a2.643,2.643,0,0,0,1.5-2.254,3.432,3.432,0,0,0-2-2.782l-73.883-42.656a8.275,8.275,0,0,0-7.562-.29L325.2,357.517a2.632,2.632,0,0,0-1.5,2.254,3.429,3.429,0,0,0,2,2.782l73.885,42.658A8.657,8.657,0,0,0,403.814,406.28Zm2.752-1.786a7.237,7.237,0,0,1-6.405-.287l-73.883-42.658c-.889-.512-1.419-1.177-1.419-1.777a1.561,1.561,0,0,1,.919-1.247l74.885-43.238a7.266,7.266,0,0,1,6.405.287l73.883,42.661c.889.512,1.419,1.175,1.419,1.777a1.57,1.57,0,0,1-.917,1.249Z" transform="translate(-323.7 -282.335)" fill="#8686f2" style="mix-blend-mode: lighten;isolation: isolate"/>
          <g id="Group_326" data-name="Group 326" transform="translate(0.578)">
            <g id="Group_322" data-name="Group 322">
              <path id="Path_271" data-name="Path 271" d="M323.785,320.02v9.19l79.529,45.915,79.531-45.918v-9.19Z" transform="translate(-323.785 -274.102)" fill="url(#linear-gradient-29)"/>
              <path id="Path_272" data-name="Path 272" d="M403.314,391.564l79.531-45.918-79.529-45.915-79.531,45.918Z" transform="translate(-323.785 -299.731)" fill="#bcbeff"/>
              <path id="Path_273" data-name="Path 273" d="M403.314,365.161l78.6-45.381.93.537-79.531,45.918L323.785,320.32l.93-.537Z" transform="translate(-323.785 -274.402)" fill="#fff"/>
            </g>
            <g id="Group_325" data-name="Group 325" transform="translate(18.36 1.704)">
              <path id="Path_274" data-name="Path 274" d="M393.067,375.049l61.168-35.315-61.166-35.315L331.9,339.734Z" transform="translate(-331.898 -295.512)" fill="#0f054c"/>
              <g id="Group_324" data-name="Group 324">
                <path id="Path_275" data-name="Path 275" d="M393.066,375.052l61.17-35.317-61.168-35.315L331.9,339.734Z" transform="translate(-331.897 -295.512)" opacity="0.5" fill="url(#linear-gradient-30)"/>
                <g id="Group_323" data-name="Group 323">
                  <path id="Path_276" data-name="Path 276" d="M420.094,300.483,358.924,335.8v8.905l61.171-35.317Z" transform="translate(-358.924 -300.483)" opacity="0.5" fill="url(#linear-gradient-30)"/>
                  <path id="Path_277" data-name="Path 277" d="M331.9,309.388l61.17,35.317V335.8L331.9,300.483Z" transform="translate(-270.729 -300.483)" opacity="0.5" fill="url(#linear-gradient-30)"/>
                  <path id="Path_278" data-name="Path 278" d="M393.066,371.116l61.17-35.315-61.168-35.317L331.9,335.8Z" transform="translate(-331.897 -300.483)" opacity="0.5" fill="url(#linear-gradient-30)"/>
                  <path id="Path_279" data-name="Path 279" d="M372.566,338.075l24.443-14.11-24.441-14.112-24.443,14.112Z" transform="translate(-311.397 -288.648)" fill="#42e8e0" opacity="0.5"/>
                  <path id="Path_280" data-name="Path 280" d="M372.568,311.152,349.25,324.615l-1.125-.65,24.443-14.112,24.441,14.112-1.125.648Z" transform="translate(-311.397 -288.648)" fill="#42e8e0" opacity="0.5"/>
                  <path id="Path_281" data-name="Path 281" d="M420.093,351.4v8.905l-61.168-35.315v-8.905Z" transform="translate(-358.925 -280.771)" opacity="0.5" fill="url(#linear-gradient-30)"/>
                </g>
                <path id="Path_282" data-name="Path 282" d="M393.068,316.088v8.905L331.9,360.308V351.4Z" transform="translate(-270.729 -280.771)" opacity="0.5" fill="url(#linear-gradient-30)"/>
              </g>
              <path id="Path_283" data-name="Path 283" d="M393.066,350.7l60.328-34.831.842.486-61.17,35.315L331.9,316.359l.842-.486Z" transform="translate(-331.897 -281.042)" fill="#42e8e0" opacity="0.8"/>
            </g>
          </g>
        </g>
        <g id="Group_333" data-name="Group 333">
          <path id="Path_284" data-name="Path 284" d="M544.66,314.112a6.732,6.732,0,0,0,3.332-.781l74.89-43.235a2.631,2.631,0,0,0,1.5-2.254,3.428,3.428,0,0,0-2-2.782L548.5,222.4a8.275,8.275,0,0,0-7.562-.29l-74.89,43.236a2.634,2.634,0,0,0-1.5,2.257,3.423,3.423,0,0,0,2,2.779l73.883,42.658A8.649,8.649,0,0,0,544.66,314.112Zm2.752-1.786a7.232,7.232,0,0,1-6.4-.287l-73.883-42.656c-.889-.514-1.417-1.177-1.417-1.779a1.556,1.556,0,0,1,.914-1.247l74.89-43.238a7.262,7.262,0,0,1,6.4.287L621.8,266.067c.889.512,1.417,1.175,1.417,1.777a1.56,1.56,0,0,1-.914,1.249Z" transform="translate(-464.549 -190.167)" fill="#8686f2" style="mix-blend-mode: lighten;isolation: isolate"/>
          <g id="Group_332" data-name="Group 332" transform="translate(0.579)">
            <g id="Group_328" data-name="Group 328">
              <path id="Path_285" data-name="Path 285" d="M464.634,227.852v9.19l79.527,45.915,79.531-45.918v-9.19Z" transform="translate(-464.634 -181.934)" fill="url(#linear-gradient-29)"/>
              <path id="Path_286" data-name="Path 286" d="M544.161,299.4l79.531-45.918-79.527-45.915L464.634,253.48Z" transform="translate(-464.634 -207.563)" fill="#bcbeff"/>
              <path id="Path_287" data-name="Path 287" d="M544.161,272.993l78.6-45.381.931.537-79.531,45.918-79.527-45.915.931-.537Z" transform="translate(-464.634 -182.234)" fill="#fff"/>
            </g>
            <g id="Group_331" data-name="Group 331" transform="translate(18.358 1.705)">
              <path id="Path_288" data-name="Path 288" d="M533.915,282.882l61.168-35.315-61.168-35.316-61.168,35.316Z" transform="translate(-472.744 -203.345)" fill="#0f054c"/>
              <g id="Group_330" data-name="Group 330">
                <path id="Path_289" data-name="Path 289" d="M533.916,282.884l61.171-35.317-61.171-35.316-61.171,35.319Z" transform="translate(-472.745 -203.345)" opacity="0.5" fill="url(#linear-gradient-30)"/>
                <g id="Group_329" data-name="Group 329">
                  <path id="Path_290" data-name="Path 290" d="M560.943,208.316l-61.171,35.316v8.905l61.171-35.316Z" transform="translate(-499.772 -208.316)" opacity="0.5" fill="url(#linear-gradient-30)"/>
                  <path id="Path_291" data-name="Path 291" d="M472.745,217.221l61.171,35.316v-8.905l-61.171-35.316Z" transform="translate(-411.575 -208.316)" opacity="0.5" fill="url(#linear-gradient-30)"/>
                  <path id="Path_292" data-name="Path 292" d="M533.916,278.947l61.171-35.315-61.171-35.316-61.171,35.316Z" transform="translate(-472.745 -208.316)" opacity="0.5" fill="url(#linear-gradient-30)"/>
                  <path id="Path_293" data-name="Path 293" d="M513.417,245.909,537.858,231.8l-24.441-14.111L488.974,231.8Z" transform="translate(-452.246 -196.48)" fill="#42e8e0" opacity="0.5"/>
                  <path id="Path_294" data-name="Path 294" d="M513.417,218.984,490.1,232.446l-1.125-.65,24.443-14.111L537.858,231.8l-1.123.649Z" transform="translate(-452.246 -196.48)" fill="#42e8e0" opacity="0.5"/>
                  <path id="Path_295" data-name="Path 295" d="M560.943,259.235v8.907l-61.171-35.317V223.92Z" transform="translate(-499.772 -188.604)" opacity="0.5" fill="url(#linear-gradient-30)"/>
                </g>
                <path id="Path_296" data-name="Path 296" d="M533.916,223.92v8.905l-61.171,35.317v-8.907Z" transform="translate(-411.575 -188.604)" opacity="0.5" fill="url(#linear-gradient-30)"/>
              </g>
              <path id="Path_297" data-name="Path 297" d="M533.916,258.536l60.329-34.831.842.486-61.171,35.315-61.171-35.315.842-.485Z" transform="translate(-472.745 -188.875)" fill="#42e8e0" opacity="0.8"/>
            </g>
          </g>
        </g>
        <g id="Group_339" data-name="Group 339" transform="translate(0 208.602)">
          <path id="Path_298" data-name="Path 298" d="M544.66,406.28a6.732,6.732,0,0,0,3.332-.781l74.89-43.236a2.631,2.631,0,0,0,1.5-2.254,3.428,3.428,0,0,0-2-2.782L548.5,314.572a8.275,8.275,0,0,0-7.562-.29l-74.89,43.236a2.634,2.634,0,0,0-1.5,2.254,3.422,3.422,0,0,0,2,2.782l73.883,42.658A8.648,8.648,0,0,0,544.66,406.28Zm2.752-1.786a7.232,7.232,0,0,1-6.4-.287l-73.883-42.658a2.383,2.383,0,0,1-1.417-1.777,1.556,1.556,0,0,1,.914-1.247l74.89-43.238a7.261,7.261,0,0,1,6.4.287L621.8,358.235c.889.512,1.417,1.175,1.417,1.777a1.563,1.563,0,0,1-.914,1.249Z" transform="translate(-464.549 -282.335)" fill="#8686f2" style="mix-blend-mode: lighten;isolation: isolate"/>
          <g id="Group_338" data-name="Group 338" transform="translate(0.579)">
            <g id="Group_334" data-name="Group 334">
              <path id="Path_299" data-name="Path 299" d="M464.634,320.02v9.19l79.527,45.915,79.531-45.918v-9.19Z" transform="translate(-464.634 -274.102)" fill="url(#linear-gradient-29)"/>
              <path id="Path_300" data-name="Path 300" d="M544.161,391.564l79.531-45.918-79.527-45.915-79.531,45.918Z" transform="translate(-464.634 -299.731)" fill="#bcbeff"/>
              <path id="Path_301" data-name="Path 301" d="M544.161,365.161l78.6-45.381.931.537-79.531,45.918L464.634,320.32l.931-.537Z" transform="translate(-464.634 -274.402)" fill="#fff"/>
            </g>
            <g id="Group_337" data-name="Group 337" transform="translate(18.358 1.704)">
              <path id="Path_302" data-name="Path 302" d="M533.915,375.049l61.168-35.315-61.168-35.315-61.168,35.315Z" transform="translate(-472.744 -295.512)" fill="#0f054c"/>
              <g id="Group_336" data-name="Group 336">
                <path id="Path_303" data-name="Path 303" d="M533.916,375.052l61.171-35.317-61.171-35.315-61.171,35.315Z" transform="translate(-472.745 -295.512)" opacity="0.5" fill="url(#linear-gradient-30)"/>
                <g id="Group_335" data-name="Group 335">
                  <path id="Path_304" data-name="Path 304" d="M560.943,300.483,499.773,335.8v8.905l61.171-35.317Z" transform="translate(-499.772 -300.483)" opacity="0.5" fill="url(#linear-gradient-30)"/>
                  <path id="Path_305" data-name="Path 305" d="M472.745,309.388l61.171,35.317V335.8l-61.171-35.317Z" transform="translate(-411.575 -300.483)" opacity="0.5" fill="url(#linear-gradient-30)"/>
                  <path id="Path_306" data-name="Path 306" d="M533.916,371.116,595.086,335.8l-61.171-35.317L472.745,335.8Z" transform="translate(-472.745 -300.483)" opacity="0.5" fill="url(#linear-gradient-30)"/>
                  <path id="Path_307" data-name="Path 307" d="M513.417,338.075l24.441-14.11-24.441-14.112-24.443,14.112Z" transform="translate(-452.246 -288.648)" fill="#42e8e0" opacity="0.5"/>
                  <path id="Path_308" data-name="Path 308" d="M513.417,311.152,490.1,324.615l-1.125-.65,24.443-14.112,24.441,14.112-1.123.648Z" transform="translate(-452.246 -288.648)" fill="#42e8e0" opacity="0.5"/>
                  <path id="Path_309" data-name="Path 309" d="M560.943,351.4v8.905l-61.171-35.315v-8.905Z" transform="translate(-499.772 -280.771)" opacity="0.5" fill="url(#linear-gradient-30)"/>
                </g>
                <path id="Path_310" data-name="Path 310" d="M533.916,316.088v8.905l-61.171,35.315V351.4Z" transform="translate(-411.575 -280.771)" opacity="0.5" fill="url(#linear-gradient-30)"/>
              </g>
              <path id="Path_311" data-name="Path 311" d="M533.916,350.7l60.329-34.831.842.486-61.171,35.315-61.171-35.315.842-.486Z" transform="translate(-472.745 -281.042)" fill="#42e8e0" opacity="0.8"/>
            </g>
          </g>
        </g>
      </g>
    </g>
    <g id="Group_344" data-name="Group 344" transform="translate(160.965 35.542)" opacity="0.5">
      <g id="Group_342" data-name="Group 342" transform="translate(236.38)">
        <path id="Path_312" data-name="Path 312" d="M371.481,127.987c-54.946-16.542-87.643,45.714-55.536,105.738,27.248,50.935,93.668,87.729,111.041,34.23,10.216-31.473,1.75-108.606-50.229-137.71,14.008,7.245,24.29,17.488,34.377,34.257-19.172,23.588-20.736,25.514-37.283,44.551-19.6-46.3-21.2-50.086-35.692-81.406,11.319-3.931,21.282-3.832,33.322.339Zm3.854,1.591c.416.19.833.385,1.245.584-.412-.2-.828-.394-1.245-.584Zm-2.8-1.186q-.458-.18-.917-.353.458.173.917.353Zm1.313.534q.648.275,1.288.561-.638-.285-1.288-.561Zm0,0q-.523-.221-1.052-.43.53.21,1.052.43Z" transform="translate(-303.273 -124.758)" fill="#42e8e0" opacity="0.502"/>
        <path id="Path_313" data-name="Path 313" d="M298.734,157.828q-4.817-5.055-10.314-9.938V308.144q5.493,4.878,10.314,9.936V157.828Z" transform="translate(-137.62 -95.559)" fill="#42e8e0"/>
        <path id="Path_314" data-name="Path 314" d="M288.671,192.326a124.155,124.155,0,0,0-7.528-10.608v103.9a123.839,123.839,0,0,1,7.528,10.61V192.326Z" transform="translate(-111.087 -52.825)" fill="#42e8e0"/>
        <path id="Path_315" data-name="Path 315" d="M278.464,325.689l-.167.376-.2-10.526.367-.559v10.71Zm0,31V196.433c0-1.028-.02-2.053-.059-3.083a82.67,82.67,0,0,0-3.775-21.589V332.013a82.7,82.7,0,0,1,3.775,21.589q.058,1.545.059,3.083Z" transform="translate(-86.139 -65.403)" fill="#42e8e0" opacity="0.502"/>
        <path id="Path_316" data-name="Path 316" d="M275,245.751l-.167.373-.2-10.525.366-.559v10.711Z" transform="translate(-82.672 14.536)" fill="#42e8e0"/>
        <path id="Path_317" data-name="Path 317" d="M332.237,128.37l.177.084-.177-.084Zm-4.959-2.123c-.048-.016-.1-.034-.14-.052.045.018.093.036.14.052ZM330.8,127.7l.2.091-.2-.091Zm-2.34-.991-.029-.014-.034-.011-.034-.014-.032-.014-.032-.011-.034-.014-.032-.014-.034-.014.26.1Z" transform="translate(-258.929 -122.966)" fill="#42e8e0"/>
        <path id="Path_318" data-name="Path 318" d="M347.641,128.937c-17.9-7.46-30.826-2.969-35.692-1.279,20.487,45.153,22.631,49.871,35.692,81.406,20.188-23.477,23.289-27.087,37.283-44.551-3.958-6.577-16-26.6-37.283-35.577Z" transform="translate(-277.063 -124.768)" fill="#42e8e0"/>
      </g>
      <g id="Group_343" data-name="Group 343" transform="translate(0 131.03)">
        <path id="Path_319" data-name="Path 319" d="M454.434,450c16.488,4.893,27.069-5.12,30.935-8.084,30.258-25.627,56.77-56.885,87.136-82.4,8.974-7.541,14.471-4.422,17.583-3.592,56.621,22.461,56.621,22.461,65.7,8.75,16.635-29.452,17.212-31.829,24.928-50.236,1.763-4.205,7.752-10.572,10.42-10.232,12.7,3.583,11.018,6.183,12.195,7.713v-10.71c-14.976-5.774-16.522-6.462-22.615,7.476-27.976,59.361-32.895,58.042-39.413,56.505-59.595-23.83-58.85-22.1-74.034-6.31-26.279,27.352-79.256,80.607-95.624,84.848a56.6,56.6,0,0,1-17.728-1.265c-57.524-19.267-80.344-31.38-136.641-55.634L312.232,395c20.836,9.087,83.819,33.868,141.781,52.119Zm-179.8,64.617V354.359c17.7,1,35.762,1.444,54.1,1.3,208.263-1.65,374.6-78.814,374.6-173V342.914c0,94.184-166.338,171.349-374.6,173-18.342.147-36.407-.3-54.1-1.3Z" transform="translate(-274.63 -182.662)" fill="#42e8e0" opacity="0.502"/>
        <path id="Path_320" data-name="Path 320" d="M416.832,386.646c14.834,3.8,28.846,7.385,116.077-86.462,11.04-11.095,11.04-11.095,67.695,11.486,6.43,1.562,16.149,3.92,42.932-59.968,8.27-18.871,22.063-3.307,22.2-3.135v-10.71c-4.683-2.662-5-2.843-12.041-4.825a5.311,5.311,0,0,0-3.875.317c-1.881.975-3.784,3.193-7.091,10.237-15.429,32.872-15.429,32.872-26.544,50.849-6.55,9.716-6.55,9.716-59.721-11.389-3.635-.98-11.192-3.01-22.59,6.077-32.026,25.546-58.087,57.5-89.7,83.486-11.866,8.44-19.03,13.534-164.493-49.131l-5.047,8.175c20.836,9.087,84.24,36.744,142.2,54.993Z" transform="translate(-237.028 -119.311)" fill="#42e8e0"/>
      </g>
    </g>
  </g>
</svg>
