<svg xmlns="http://www.w3.org/2000/svg" width="96" height="96" viewBox="0 0 96 96">
  <g id="delivered" opacity="0.3">
    <path id="Path_118" data-name="Path 118" d="M0,0H96V96H0Z" fill="none"/>
    <path id="Path_119" data-name="Path 119" d="M75,20H65V12a8.024,8.024,0,0,0-8-8H9a8.024,8.024,0,0,0-8,8V48a8.024,8.024,0,0,0,8,8,12,12,0,1,0,24,0H57a12,12,0,1,0,24,0h4a4.012,4.012,0,0,0,4-4V38.68a8.048,8.048,0,0,0-1.6-4.8L78.2,21.6A4.055,4.055,0,0,0,75,20ZM21,60a4,4,0,1,1,4-4A4.012,4.012,0,0,1,21,60ZM75,26l7.84,10H65V26ZM69,60a4,4,0,1,1,4-4A4.012,4.012,0,0,1,69,60Z" transform="translate(3 12)" fill="#fff"/>
  </g>
</svg>
