<svg xmlns="http://www.w3.org/2000/svg" width="96" height="96" viewBox="0 0 96 96">
  <g id="new_merchant" opacity="0.3">
    <path id="Path_123" data-name="Path 123" d="M0,0H96V96H0Z" fill="none"/>
    <path id="Path_124" data-name="Path 124" d="M11.536,12h56a4,4,0,0,0,0-8h-56a4,4,0,0,0,0,8Zm60.64,7.2a3.991,3.991,0,0,0-3.92-3.2H10.816A3.991,3.991,0,0,0,6.9,19.2l-4,20A4.019,4.019,0,0,0,6.816,44h.72V64a4.012,4.012,0,0,0,4,4h32a4.012,4.012,0,0,0,4-4V44h16V64a4,4,0,0,0,8,0V44h.72a4.019,4.019,0,0,0,3.92-4.8ZM39.536,60h-24V44h24Z" transform="translate(8.464 12)" fill="#fff"/>
  </g>
</svg>
