<svg xmlns="http://www.w3.org/2000/svg" width="96" height="96" viewBox="0 0 96 96">
  <g id="new_user" opacity="0.3">
    <path id="Path_125" data-name="Path 125" d="M0,0H96V96H0Z" fill="none"/>
    <path id="Path_126" data-name="Path 126" d="M61,29A12,12,0,1,0,49,17,11.95,11.95,0,0,0,61,29ZM29,29A12,12,0,1,0,17,17,11.95,11.95,0,0,0,29,29Zm0,8C19.68,37,1,41.68,1,51v6a4.012,4.012,0,0,0,4,4H53a4.012,4.012,0,0,0,4-4V51C57,41.68,38.32,37,29,37Zm32,0c-1.16,0-2.48.08-3.88.2.08.04.12.12.16.16C61.84,40.68,65,45.12,65,51v6a12.018,12.018,0,0,1-.72,4H85a4.012,4.012,0,0,0,4-4V51C89,41.68,70.32,37,61,37Z" transform="translate(3 15)" fill="#fff"/>
  </g>
</svg>
