<svg xmlns="http://www.w3.org/2000/svg" width="314.841" height="292.558" viewBox="0 0 314.841 292.558">
  <g id="OBJECTS" transform="translate(0 3.87)">
    <path id="Path_44" data-name="Path 44" d="M993.534,305.294H1165.5c38.33-26.419,63.389-70,63.389-119.32,0-80.6-66.87-157.544-149.38-157.544s-149.4,77-149.4,157.544C930.11,235.3,955.169,278.875,993.534,305.294Z" transform="translate(-922.052 -23.252)" fill="#fff" opacity="0.8"/>
    <ellipse id="Ellipse_1" data-name="Ellipse 1" cx="157.421" cy="6.203" rx="157.421" ry="6.203" transform="translate(0 276.282)" fill="#cee5ed" opacity="0.43"/>
    <rect id="Rectangle_28" data-name="Rectangle 28" width="7.157" height="68.496" transform="translate(98.892 207.821)" fill="#aac6ce"/>
    <rect id="Rectangle_29" data-name="Rectangle 29" width="7.157" height="9.631" transform="translate(98.892 207.821)" fill="#85b0ba"/>
    <path id="Path_45" data-name="Path 45" d="M43.443,154.69h60.084a4.153,4.153,0,0,1,4.171,4.082v2.138H39.29v-2.138a4.153,4.153,0,0,1,4.153-4.082Z" transform="translate(30.143 121.645)" fill="#aac6ce"/>
    <path id="Path_46" data-name="Path 46" d="M980.879,186.371h49.6c-18.06-6.486-11.08-67.577-7.74-90.745a7.74,7.74,0,0,0-7.67-8.836H982.046a13.537,13.537,0,0,0-13.413,11.681c-2.9,21.047-7.475,64.679,1.573,81.573A12.105,12.105,0,0,0,980.879,186.371Z" transform="translate(-895.383 21.521)" fill="#aac6ce"/>
    <circle id="Ellipse_2" data-name="Ellipse 2" cx="34.796" cy="34.796" r="34.796" transform="translate(16.458 11.31) rotate(-12.6)" fill="#ffdd31"/>
    <circle id="Ellipse_3" data-name="Ellipse 3" cx="28.399" cy="28.399" r="28.399" transform="translate(29.618 9.367)" fill="#fff"/>
    <path id="Path_47" data-name="Path 47" d="M958.38,35.26" transform="translate(-900.363 -18.012)" fill="none" stroke="#3e8ccc" stroke-width="1"/>
    <path id="Path_48" data-name="Path 48" d="M954.592,66.083a1.767,1.767,0,0,1-1.255-3.022l7.4-7.4V36.217a1.767,1.767,0,0,1,3.534,0V56.381a1.768,1.768,0,0,1-.512,1.255l-7.935,7.917A1.767,1.767,0,0,1,954.592,66.083Z" transform="translate(-904.633 -18.633)" fill="#ffdd31"/>
    <path id="Path_49" data-name="Path 49" d="M964.024,48.35a4.064,4.064,0,1,0-1.2,2.88,4.082,4.082,0,0,0,1.2-2.88Z" transform="translate(-902.297 -11.115)" fill="#2c95ff"/>
    <path id="Path_50" data-name="Path 50" d="M1098.633,65.18h-59.36a5.513,5.513,0,0,0-5.513,5.514V97.449a5.513,5.513,0,0,0,5.513,5.514h4.135v6.468a1.043,1.043,0,0,0,1.767.76l8.041-7.228h45.452a5.514,5.514,0,0,0,5.514-5.514V70.694a5.514,5.514,0,0,0-5.549-5.514Z" transform="translate(-842.533 4.942)" fill="#df67fc"/>
    <circle id="Ellipse_4" data-name="Ellipse 4" cx="2.421" cy="2.421" r="2.421" transform="translate(209.57 86.999)" fill="#fff"/>
    <circle id="Ellipse_5" data-name="Ellipse 5" cx="2.421" cy="2.421" r="2.421" transform="translate(224.503 86.999)" fill="#fff"/>
    <circle id="Ellipse_6" data-name="Ellipse 6" cx="2.421" cy="2.421" r="2.421" transform="translate(238.428 86.999)" fill="#fff"/>
    <path id="Path_51" data-name="Path 51" d="M969.438,111.542c0-6.539-4.63-13.112-10.338-13.112S948.78,105,948.78,111.542,953.41,123.4,959.1,123.4,969.438,118.1,969.438,111.542Z" transform="translate(-907.728 30.451)" fill="#79ef67"/>
    <path id="Path_52" data-name="Path 52" d="M955.771,98.43a7.527,7.527,0,0,0-2.651.512c4.418,1.626,7.687,7.069,7.687,12.6a11.7,11.7,0,0,1-7.687,11.451,9.436,9.436,0,0,0,2.651.407c5.708,0,10.338-5.3,10.338-11.858S961.479,98.43,955.771,98.43Z" transform="translate(-904.399 30.451)" fill="#34648c" opacity="0.25"/>
    <path id="Path_53" data-name="Path 53" d="M948.007,111l1.767,16.771a4.135,4.135,0,0,0,4.118,3.676h10.6a4.153,4.153,0,0,0,4.117-3.676L970.38,111a1.52,1.52,0,0,0-1.52-1.767H949.474A1.537,1.537,0,0,0,948.007,111Z" transform="translate(-908.334 38.737)" fill="#f1a82c"/>
    <path id="Path_54" data-name="Path 54" d="M949.5,111.792H969.05a1.52,1.52,0,0,1,1.343.866L970.57,111a1.52,1.52,0,0,0-1.52-1.767H949.5A1.537,1.537,0,0,0,947.968,111l.194,1.661a1.519,1.519,0,0,1,1.343-.866Z" transform="translate(-908.365 38.737)" fill="#e8a128"/>
    <path id="Path_55" data-name="Path 55" d="M964.716,109.27H957.93a1.537,1.537,0,0,1,1.537,1.767L957.7,127.808a4.135,4.135,0,0,1-4.1,3.676h6.768a4.153,4.153,0,0,0,4.117-3.676l1.767-16.771a1.52,1.52,0,0,0-1.538-1.767Z" transform="translate(-904.031 38.767)" fill="#e8a128"/>
    <path id="Path_56" data-name="Path 56" d="M83.067,149.482l-.707,4.842,3.693,4.718,9.348-4.577,1.007-4.436-11.628-1.75Z" transform="translate(63.185 116.727)" fill="#f2bf75"/>
    <path id="Path_57" data-name="Path 57" d="M1016.755,189.649l.972-1.184a.442.442,0,0,1,.689,0l.972,1.149a2.032,2.032,0,0,0,1.573.707l21.7-.371a1.148,1.148,0,0,0,0-1.643c-3.181-3.216-20.3-8.836-21.206-9.225s-6.1,3.534-13.024-.141a72.292,72.292,0,0,0-1.29,8.942,2.492,2.492,0,0,0,2.51,2.633l5.5-.106a1.944,1.944,0,0,0,1.608-.76Z" transform="translate(-862.957 92.217)" fill="#1e394c"/>
    <path id="Path_58" data-name="Path 58" d="M986.826,131.089s-9.013,9.967,7.493,20.8c11.593,7.6,20.711,5.3,27.992,9.879a6.132,6.132,0,0,1,3.11,4.7l.371,46.6.884.424a16.028,16.028,0,0,0,13.925.159h0l6.574-53.157c.23-3.676-1.767-6.768-4.011-9.649-12.635-16.064-34.99-21.507-40.645-22.426C995.167,127.219,986.826,131.089,986.826,131.089Z" transform="translate(-880.424 53.282)" fill="#1e394c"/>
    <path id="Path_59" data-name="Path 59" d="M62.77,149.474l-.76,4.824,3.623,4.771,9.4-4.453,1.078-4.418L64.5,148.29Z" transform="translate(47.573 116.735)" fill="#f2bf75"/>
    <path id="Path_60" data-name="Path 60" d="M996.3,189.68l.99-1.184a.459.459,0,0,1,.689,0l.954,1.149a1.979,1.979,0,0,0,1.555.725h21.719a1.149,1.149,0,0,0,0-1.626c-3.146-3.269-20.2-9.048-21.047-9.525s-6.132,3.534-13.024-.318a73.025,73.025,0,0,0-1.414,8.942,2.492,2.492,0,0,0,2.474,2.651h5.514A2.014,2.014,0,0,0,996.3,189.68Z" transform="translate(-878.624 92.186)" fill="#1e394c"/>
    <path id="Path_61" data-name="Path 61" d="M971.846,125.668s-10.921,12.176,4.877,25.925c11.08,9.649,21.03,5.531,28.01,11.416a6.521,6.521,0,0,1,2.6,5.39l-4.983,47.4.371.23a15.021,15.021,0,0,0,14.562,1.007h0l12.37-49.941c.778-3.817-.866-7.351-2.828-10.709-10.957-18.7-28.169-29.83-33.983-31.615C985.259,122.434,971.846,125.668,971.846,125.668Z" transform="translate(-892.853 50.008)" fill="#1e394c"/>
    <path id="Path_62" data-name="Path 62" d="M1014.817,160.308a21.684,21.684,0,0,0-2.545-.884,21.748,21.748,0,0,0-2.775-6.45,85.533,85.533,0,0,0-18.767-22c3.958-.672,5.973-1.52,7.069-2.633a74.422,74.422,0,0,1,11.858,3.216C1015.029,140.534,1015.011,155.113,1014.817,160.308Z" transform="translate(-875.545 53.398)" fill="#0f2a3f"/>
    <path id="Path_63" data-name="Path 63" d="M1001.409,88.509s-15.763-2.1-22.3,10.179-16.329,60.4-7.776,61.851c3.782.636,13.872,3.181,25.059,2.368,15.375-1.131,18.732-2.545,19.828-5.478l9.808-44.833a18.962,18.962,0,0,0-7.44-15.9,53.336,53.336,0,0,0-17.177-8.182Z" transform="translate(-892.992 22.735)" fill="#ff6060"/>
    <path id="Path_64" data-name="Path 64" d="M1004.564,99.85s.212,27.02,8.695,28.646,31.1,1.131,31.1,1.131v8.589H995.87Z" transform="translate(-871.602 31.541)" fill="#f65757"/>
    <path id="Path_65" data-name="Path 65" d="M999.727,101.167l1.909-9.56-12.37-9.437L986.88,93.445S990.785,110.639,999.727,101.167Z" transform="translate(-878.499 17.977)" fill="#e8b770"/>
    <path id="Path_66" data-name="Path 66" d="M1017.687,85.7s-6.485,3.163-15.9-2.633a22.529,22.529,0,0,1-8.641,7.564s-3.3-5.531-5.3-1.378a8.729,8.729,0,0,0-.866,3.393c-5.973-7.7-1.767-17.849,3.8-23.309,5.3-5.2,16.664-3.128,23.786-.265,7.564,3.04,8.942-2.262,8.942-2.262C1033.15,80.2,1017.687,85.7,1017.687,85.7Z" transform="translate(-880.659 5.682)" fill="#1e394c"/>
    <path id="Path_67" data-name="Path 67" d="M991.882,83.253s-3.3-5.531-5.3-1.378c-2.3,5.036.3,8.2,3.428,8.2,0,0,2.474,13.095,14.526,12.176s13.784-20.27,11.8-23.857c0,0-6.486,3.163-15.9-2.633a22.528,22.528,0,0,1-8.553,7.493Z" transform="translate(-879.401 13.059)" fill="#f2bf75"/>
    <path id="Path_68" data-name="Path 68" d="M1075.221,97.31h-50.276a5.3,5.3,0,0,0-5.107,4.171l-6.7,32.8h60.915l6.274-30.714a5.3,5.3,0,0,0-5.107-6.256Z" transform="translate(-858.352 29.592)" fill="#1a86ab"/>
    <rect id="Rectangle_30" data-name="Rectangle 30" width="88.041" height="5.761" rx="1.4" transform="translate(129.959 163.889)" fill="#0f769a"/>
    <path id="Path_69" data-name="Path 69" d="M1074.144,118.23H1012.77a2.492,2.492,0,0,1,2.474,2.492v.8a2.492,2.492,0,0,1-2.474,2.492h61.375a2.492,2.492,0,0,0,2.492-2.492v-.8a2.492,2.492,0,0,0-2.492-2.492Z" transform="translate(-858.636 45.641)" fill="#0f769a"/>
    <path id="Path_70" data-name="Path 70" d="M1028.17,137.141c-9.79-1.149-37.252-3.941-41.953-4.436-5.938-.6,6.963-24.546,8.394-32.728s-4.807-8.5-4.807-8.5a9.984,9.984,0,0,0-10.6,4.966c-6.7,10.144-14.138,39.815-10.232,47.131a2.633,2.633,0,0,0,2.333,1.4h56.868Z" transform="translate(-893.068 24.981)" fill="#ff6060"/>
    <path id="Path_71" data-name="Path 71" d="M1021.778,137.194s-35.344-2.439-42.978-3.534c-5.9-.8,6.415-25.324,7.846-33.576s-4.913-7.846-4.913-7.846a15.145,15.145,0,0,0-5.514.53,10.25,10.25,0,0,1,7.193-1.378s6.238.318,4.807,8.5-12.476,31.615-8.748,32.534C984.084,133.7,1012.005,136.045,1021.778,137.194Z" transform="translate(-886.677 24.928)" fill="#f65757"/>
    <path id="Path_72" data-name="Path 72" d="M1002,124.8h13.183a1.237,1.237,0,0,0,1.043-1.926c-1.237-1.909-3.181-4.577-4.612-5.036a63.512,63.512,0,0,0-9.614.212Z" transform="translate(-866.899 45.272)" fill="#f2bf75"/>
    <path id="Path_73" data-name="Path 73" d="M1010.616,77.21a10.5,10.5,0,0,1-2.987.742c-.159.9-.442,2.615-.6,4.241-.212,2.315.937,9.49.23,9.543a17.385,17.385,0,0,1-2.209,0s-1.113,10.391-11.487,8.73h-.283a13.219,13.219,0,0,0,5.531.689C1010.846,100.13,1012.6,80.8,1010.616,77.21Z" transform="translate(-873.589 14.171)" fill="#e6ae5d" opacity="0.67"/>
    <path id="Path_74" data-name="Path 74" d="M1097.631,191.537s16.558-8.217,12.052-20.676-7.281-12.989,1.325-20,21.065-24.635,5.3-25.96-14.968,19.6-28.08,22.514S1067.96,205.179,1097.631,191.537Z" transform="translate(-809.456 50.709)" fill="#79ef67"/>
    <path id="Path_75" data-name="Path 75" d="M1081.24,192.76c3.181,1.484,7.458,1.343,13.042-1.219,0,0,16.558-8.217,12.052-20.676s-7.281-12.989,1.325-20,21.065-24.635,5.3-25.96a14.138,14.138,0,0,0-4.206.212c4.436,1.856,8.836,5.514,3.146,12.264-9.49,11.275-14.579,15.251-13.466,22.532S1098.894,183.164,1081.24,192.76Z" transform="translate(-806.107 50.705)" fill="#34648c" opacity="0.25"/>
    <path id="Path_76" data-name="Path 76" d="M1085.452,183.559s-14.579-.53-13.784-10.992,1.2-10.886-7.952-14.137c-16.17-5.832-3.357-36.881,9.808-17.354,9.136,13.537,13.113,10.5,19.068,11.557S1111.554,188.242,1085.452,183.559Z" transform="translate(-825.358 58.28)" fill="#79ef67"/>
    <path id="Path_77" data-name="Path 77" d="M1092.113,152.615c-5.955-1.06-9.932,1.979-19.068-11.557-6.892-10.232-13.678-6.574-16.276,0,3.888-1.184,9.772-1.891,10.6,4.418.954,8.182,20.111,21.63,19.722,38.348h.742c2.792-7.351,6.468-16.894,9.614-25.023C1095.683,155.407,1093.669,152.915,1092.113,152.615Z" transform="translate(-824.88 58.263)" fill="#34648c" opacity="0.29"/>
    <path id="Path_78" data-name="Path 78" d="M1080.375,195.116s-18.1-17.672-11.928-20.676,18.29,6.768,11.522-3.764-14.615-26.95-5.3-24.369,10.02,5.425,8.836-6.839c-1.5-15.9,7.352-24.051,15.693-18.874s-7.069,40.133-1.4,36.369,10.6-6.963,11.734-2.386-16.505,22.514-9.932,19.439c8.147-3.782,9.331,2.987,6.751,7.157S1093.1,210.226,1080.375,195.116Z" transform="translate(-816.906 46.264)" fill="#80ce5a"/>
    <path id="Path_79" data-name="Path 79" d="M1098.906,181.188c2.58-4.171,1.4-10.939-6.751-7.157-6.574,3.04,11.116-14.915,9.932-19.439s-5.955-1.4-11.734,2.386,9.737-31.208,1.4-36.369a8.535,8.535,0,0,0-10.868.9c4.33,1.06,7.776,4.542,5.3,13.925-5.09,19.881-8.182,36.439,1.1,31.58,8.836-4.577-10.144,16.523-10.338,31.721C1087.879,204.9,1096.608,184.9,1098.906,181.188Z" transform="translate(-809.406 46.284)" fill="#1e394c" opacity="0.48"/>
    <path id="Path_80" data-name="Path 80" d="M1067.557,164.664l3.534,31.686a7.811,7.811,0,0,0,7.776,6.963h20.2a7.811,7.811,0,0,0,7.776-6.963l3.534-31.686a2.916,2.916,0,0,0-2.9-3.234h-36.952a2.916,2.916,0,0,0-2.969,3.234Z" transform="translate(-816.617 78.783)" fill="#f1a82c"/>
    <path id="Path_81" data-name="Path 81" d="M1099.314,161.43H1086.5a2.916,2.916,0,0,1,2.9,3.234l-3.534,31.686a7.81,7.81,0,0,1-7.776,6.963H1090.9a7.811,7.811,0,0,0,7.776-6.963l3.534-31.686a2.916,2.916,0,0,0-2.9-3.234Z" transform="translate(-808.524 78.784)" fill="#e8a128"/>
    <rect id="Rectangle_31" data-name="Rectangle 31" width="225.386" height="10.232" rx="2.49" transform="translate(30.519 169.968)" fill="#3e8ccc"/>
    <path id="Path_82" data-name="Path 82" d="M1163.806,121.68H947.22a4.4,4.4,0,0,0-4.4,4.4v1.467a4.163,4.163,0,0,0,.23,1.325,4.383,4.383,0,0,1,4.171-3.057h216.586a4.382,4.382,0,0,1,4.171,3.057,4.164,4.164,0,0,0,.23-1.325v-1.431a4.4,4.4,0,0,0-4.4-4.436Z" transform="translate(-912.301 48.288)" fill="#2173aa"/>
    <path id="Path_83" data-name="Path 83" d="M83.51,202.322H76.265L25.9,100.32h7.245Z" transform="translate(19.87 79.933)" fill="#34648c"/>
    <path id="Path_84" data-name="Path 84" d="M13.4,202.322h7.228l50.365-102H63.765Z" transform="translate(10.28 79.933)" fill="#34648c"/>
    <path id="Path_85" data-name="Path 85" d="M171.74,202.322h-7.245l-50.365-102h7.245Z" transform="translate(87.559 79.933)" fill="#34648c"/>
    <path id="Path_86" data-name="Path 86" d="M101.63,202.322h7.228l50.365-102h-7.228Z" transform="translate(77.969 79.933)" fill="#34648c"/>
    <path id="Path_87" data-name="Path 87" d="M35.142,104.367l-2-4.047H25.9l2,4.047Z" transform="translate(19.87 79.933)" fill="#1a3651"/>
    <path id="Path_88" data-name="Path 88" d="M48,104.367l2-4.047H42.767l-2,4.047Z" transform="translate(31.278 79.933)" fill="#1a3651"/>
    <path id="Path_89" data-name="Path 89" d="M123.372,104.367l-2-4.047H114.13l2,4.047Z" transform="translate(87.559 79.933)" fill="#1a3651"/>
    <path id="Path_90" data-name="Path 90" d="M136.228,104.367l2-4.047H131l-2,4.047Z" transform="translate(98.967 79.933)" fill="#1a3651"/>
  </g>
</svg>
