<svg xmlns="http://www.w3.org/2000/svg" width="96" height="96" viewBox="0 0 96 96">
  <g id="total_sale" opacity="0.3">
    <g id="Group_224" data-name="Group 224">
      <rect id="Rectangle_69" data-name="Rectangle 69" width="96" height="96" fill="none"/>
    </g>
    <g id="Group_225" data-name="Group 225" transform="translate(8 8)">
      <path id="Path_122" data-name="Path 122" d="M42,2A40,40,0,1,0,82,42,40.015,40.015,0,0,0,42,2Zm3.52,63.04v1.44A3.525,3.525,0,0,1,42,70h0a3.525,3.525,0,0,1-3.52-3.52V64.8a16.038,16.038,0,0,1-10.76-8.4,3.448,3.448,0,0,1,1.8-4.72l.28-.12a3.4,3.4,0,0,1,4.32,1.56A9.36,9.36,0,0,0,42.6,58.6c3.72,0,7.92-1.92,7.92-6.44,0-3.84-2.8-5.84-9.12-8.12C37,42.48,28,39.92,28,30.8c0-.4.04-9.6,10.48-11.84V17.52A3.525,3.525,0,0,1,42,14h0a3.525,3.525,0,0,1,3.52,3.52V19a13.555,13.555,0,0,1,8.64,5.2,3.4,3.4,0,0,1-1.44,5.2h0a3.5,3.5,0,0,1-4.08-1.12,7.6,7.6,0,0,0-6.4-3.08c-2.8,0-7.24,1.48-7.24,5.56,0,3.8,3.44,5.24,10.56,7.6,9.6,3.32,12.04,8.2,12.04,13.8C57.6,62.68,47.6,64.68,45.52,65.04Z" transform="translate(-2 -2)" fill="#fff"/>
    </g>
  </g>
</svg>
